<svg xmlns="http://www.w3.org/2000/svg" xmlns:xlink="http://www.w3.org/1999/xlink" width="97.536mm" height="60.96mm" viewBox="4030 3070 384 240"><title></title><style type="text/css">
*[layerid="1"] {stroke:#000000;fill:#000000;}
*[layerid="2"] {stroke:#000000;fill:#000000;}
*[layerid="3"] {stroke:#000000;fill:#000000;}
*[layerid="4"] {stroke:#000000;fill:#000000;}
*[layerid="5"] {stroke:#000000;fill:#000000;}
*[layerid="6"] {stroke:#000000;fill:#000000;}
*[layerid="7"] {stroke:#000000;fill:#000000;}
*[layerid="8"] {stroke:#000000;fill:#000000;}
*[layerid="9"] {stroke:#000000;fill:#000000;}
*[layerid="10"] {stroke:#000000;fill:#000000;}
*[layerid="11"] {stroke:#000000;fill:#000000;}
*[layerid="12"] {stroke:#000000;fill:#000000;}
*[layerid="13"] {stroke:#000000;fill:#000000;}
*[layerid="14"] {stroke:#000000;fill:#000000;}
*[layerid="15"] {stroke:#000000;fill:#000000;}
*[layerid="21"] {stroke:#000000;fill:#000000;}
*[layerid="22"] {stroke:#000000;fill:#000000;}
*[layerid="23"] {stroke:#000000;fill:#000000;}
*[layerid="24"] {stroke:#000000;fill:#000000;}
*[layerid="25"] {stroke:#000000;fill:#000000;}
*[layerid="26"] {stroke:#000000;fill:#000000;}
*[layerid="27"] {stroke:#000000;fill:#000000;}
*[layerid="28"] {stroke:#000000;fill:#000000;}
*[layerid="29"] {stroke:#000000;fill:#000000;}
*[layerid="30"] {stroke:#000000;fill:#000000;}
*[layerid="31"] {stroke:#000000;fill:#000000;}
*[layerid="32"] {stroke:#000000;fill:#000000;}
*[layerid="33"] {stroke:#000000;fill:#000000;}
*[layerid="34"] {stroke:#000000;fill:#000000;}
*[layerid="35"] {stroke:#000000;fill:#000000;}
*[layerid="36"] {stroke:#000000;fill:#000000;}
*[layerid="37"] {stroke:#000000;fill:#000000;}
*[layerid="38"] {stroke:#000000;fill:#000000;}
*[layerid="39"] {stroke:#000000;fill:#000000;}
*[layerid="40"] {stroke:#000000;fill:#000000;}
*[layerid="41"] {stroke:#000000;fill:#000000;}
*[layerid="42"] {stroke:#000000;fill:#000000;}
*[layerid="43"] {stroke:#000000;fill:#000000;}
*[layerid="44"] {stroke:#000000;fill:#000000;}
*[layerid="45"] {stroke:#000000;fill:#000000;}
*[layerid="46"] {stroke:#000000;fill:#000000;}
*[layerid="47"] {stroke:#000000;fill:#000000;}
*[layerid="48"] {stroke:#000000;fill:#000000;}
*[layerid="49"] {stroke:#000000;fill:#000000;}
*[layerid="50"] {stroke:#000000;fill:#000000;}
*[layerid="51"] {stroke:#000000;fill:#000000;}
*[layerid="52"] {stroke:#000000;fill:#000000;}
*[fill="none"] {fill: none;}
*[stroke="none"] {stroke: none;}
path, polyline, polygon, line {stroke-linecap:round;}
g[c_partid="part_pad"][layerid="1"] ellipse:not([c_padid]) {fill:#000000;}
g[c_partid="part_pad"][layerid="1"]  polygon:not([c_padid]) {fill:#000000;}
g[c_partid="part_pad"][layerid="1"]  polyline:not([c_padid]) {stroke:#000000;}
g[c_partid="part_pad"][layerid="1"]  circle {fill:#000000;}
g[c_partid="part_pad"][layerid="2"]  ellipse:not([c_padid]) {fill:#000000;}
g[c_partid="part_pad"][layerid="2"]  polygon:not([c_padid]) {fill:#000000;}
g[c_partid="part_pad"][layerid="2"]  polyline:not([c_padid]) {stroke:#000000;}
g[c_partid="part_pad"][layerid="2"]  circle {fill:#000000;}
g[c_partid="part_pad"][layerid="11"]  ellipse:not([c_padid]) {fill:#000000;}
g[c_partid="part_pad"][layerid="11"]  polygon:not([c_padid]) {fill:#000000;}
g[c_partid="part_pad"][layerid="11"]  polyline:not([c_padid]) {stroke:#000000;}
g[c_partid="part_pad"][layerid="11"]  circle {fill:#000000;}
g[c_partid="part_pad"][layerid] > circle[c_padhole] {fill: #FFFFFF;}
g[c_partid="part_pad"][layerid] > polyline[c_padhole] {stroke:#FFFFFF;}
g[c_partid="part_via"][layerid] > * + circle {fill: #FFFFFF;}
g[c_partid="part_pad"] > polygon[c_padid] {stroke-linejoin: miter;stroke-miterlimit: 100;}
g[c_partid="part_hole"] > circle {fill: #FFFFFF;}path, polyline, polygon {stroke-linejoin:round;}
rect, circle, ellipse, polyline, line, polygon, path {shape-rendering:crispEdges;}
</style>
<rect x="4030" y="3070" width="384" height="240" fill="#FFFFFF" stroke="none"/><g id="g1" cpara="" c_transformList="" importFlag="0" xmlns="http://www.w3.org/2000/svg"><polyline points="4345 3157.15 4345 3157.79 4234.2 3268.59 4181 3268.59" stroke-width="1.378" c_shapetype="line" stroke-linecap="round" fill="none" layerid="2" net="U2_GND" id="gge311" /><polyline points="4059 3135.01 4165.92 3241.93 4165.92 3253.51 4181 3268.59" stroke-width="1.378" c_shapetype="line" stroke-linecap="round" fill="none" layerid="2" net="U2_GND" id="gge312" /><polyline points="4181 3271.5 4181 3268.59" stroke-width="1.378" c_shapetype="line" stroke-linecap="round" fill="none" layerid="2" net="U2_GND" id="gge313" /><polyline points="4345 3148 4345 3157.15" stroke-width="1.378" c_shapetype="line" stroke-linecap="round" fill="none" layerid="2" net="U2_GND" id="gge314" /><polyline points="4315 3148 4315 3138.85" stroke-width="1.378" c_shapetype="line" stroke-linecap="round" fill="none" layerid="2" net="U2_D2" id="gge317" /><polyline points="4315 3138.85 4279.72 3138.85 4228.42 3190.15 4228.42 3225" stroke-width="1.378" c_shapetype="line" stroke-linecap="round" fill="none" layerid="2" net="U2_D2" id="gge319" /><polyline points="4305 3148 4305 3192.32 4234.69 3262.63" stroke-width="1.378" c_shapetype="line" stroke-linecap="round" fill="none" layerid="2" net="U2_D1" id="gge322" /><polyline points="4059 3155.01 4053.13 3160.88 4053.13 3189.13 4059 3195" stroke-width="1.378" c_shapetype="line" stroke-linecap="round" fill="none" layerid="2" net="U2_3V3" id="gge326" /><polyline points="4059.01 3125.01 4052.76 3131.26 4052.76 3148.77 4059 3155.01" stroke-width="1.378" c_shapetype="line" stroke-linecap="round" fill="none" layerid="2" net="U2_3V3" id="gge327" /><polyline points="4112.95 3243.27 4112.95 3198.96 4059 3145.01" stroke-width="1.378" c_shapetype="line" stroke-linecap="round" fill="none" layerid="2" net="U2_D8" id="gge329" /><polyline points="4059 3175.01 4068.51 3184.52 4068.51 3225.49 4059 3235" stroke-width="1.378" c_shapetype="line" stroke-linecap="round" fill="none" layerid="2" net="U2_D7" id="gge334" /><polyline points="4059 3205 4052.76 3211.24 4052.76 3238.76 4059 3245" stroke-width="1.378" c_shapetype="line" stroke-linecap="round" fill="none" layerid="2" net="U2_D6" id="gge337" /><polyline points="4059 3185.01 4065.15 3191.16 4065.15 3208.85 4059 3215" stroke-width="1.378" c_shapetype="line" stroke-linecap="round" fill="none" layerid="2" net="U2_D5" id="gge338" /><polyline points="4181 3251.5 4181 3131.5 4182.5 3130" stroke-width="1.378" c_shapetype="line" stroke-linecap="round" fill="none" layerid="2" net="SW1_2" id="gge341" /><g xmlns="http://www.w3.org/2000/svg" c_origin="4181,3261.5" c_para="package`SWITCH_PADS`" c_partid="part_import_gge273" id="gge273" c_shapetype="group" c_etype="pinpart" layerid="2" ><g c_partid="part_pcbtext" c_origin="4181,3238.66" c_rotation="0" c_mirror="" id="gge274" layerid="4" c_shapetype="group" ><path c_fontSize="4.5" c_fontFamily="" c_text="POW" d="M 4181 3236.21 L 4181 3240.5 M 4181 3236.21 L 4179.16 3236.21 L 4178.55 3236.41 L 4178.34 3236.61 L 4178.14 3237.02 L 4178.14 3237.64 L 4178.34 3238.05 L 4178.55 3238.25 L 4179.16 3238.46 L 4181 3238.46 M 4175.56 3236.21 L 4175.97 3236.41 L 4176.38 3236.82 L 4176.58 3237.23 L 4176.79 3237.84 L 4176.79 3238.86 L 4176.58 3239.48 L 4176.38 3239.89 L 4175.97 3240.3 L 4175.56 3240.5 L 4174.74 3240.5 L 4174.33 3240.3 L 4173.92 3239.89 L 4173.72 3239.48 L 4173.51 3238.86 L 4173.51 3237.84 L 4173.72 3237.23 L 4173.92 3236.82 L 4174.33 3236.41 L 4174.74 3236.21 L 4175.56 3236.21 M 4172.16 3236.21 L 4171.14 3240.5 M 4170.12 3236.21 L 4171.14 3240.5 M 4170.12 3236.21 L 4169.1 3240.5 M 4168.07 3236.21 L 4169.1 3240.5" fill="none"  stroke-width="0.6" c_note="note_pre" /></g><g c_partid="part_pcbtext" c_origin="4181,3233.16" c_rotation="0" c_mirror="" id="gge276" layerid="4" c_shapetype="group" display="none"><path c_fontSize="4.5" c_fontFamily="" c_text="Power Input" d="M 4181 3230.71 L 4181 3235 M 4181 3230.71 L 4179.16 3230.71 L 4178.55 3230.91 L 4178.34 3231.11 L 4178.14 3231.52 L 4178.14 3232.14 L 4178.34 3232.55 L 4178.55 3232.75 L 4179.16 3232.96 L 4181 3232.96 M 4175.76 3232.14 L 4176.17 3232.34 L 4176.58 3232.75 L 4176.79 3233.36 L 4176.79 3233.77 L 4176.58 3234.39 L 4176.17 3234.8 L 4175.76 3235 L 4175.15 3235 L 4174.74 3234.8 L 4174.33 3234.39 L 4174.13 3233.77 L 4174.13 3233.36 L 4174.33 3232.75 L 4174.74 3232.34 L 4175.15 3232.14 L 4175.76 3232.14 M 4172.78 3232.14 L 4171.96 3235 M 4171.14 3232.14 L 4171.96 3235 M 4171.14 3232.14 L 4170.32 3235 M 4169.5 3232.14 L 4170.32 3235 M 4168.15 3233.36 L 4165.7 3233.36 L 4165.7 3232.96 L 4165.9 3232.55 L 4166.11 3232.34 L 4166.52 3232.14 L 4167.13 3232.14 L 4167.54 3232.34 L 4167.95 3232.75 L 4168.15 3233.36 L 4168.15 3233.77 L 4167.95 3234.39 L 4167.54 3234.8 L 4167.13 3235 L 4166.52 3235 L 4166.11 3234.8 L 4165.7 3234.39 M 4164.35 3232.14 L 4164.35 3235 M 4164.35 3233.36 L 4164.15 3232.75 L 4163.74 3232.34 L 4163.33 3232.14 L 4162.71 3232.14 M 4158.21 3230.71 L 4158.21 3235 M 4156.86 3232.14 L 4156.86 3235 M 4156.86 3232.96 L 4156.25 3232.34 L 4155.84 3232.14 L 4155.23 3232.14 L 4154.82 3232.34 L 4154.61 3232.96 L 4154.61 3235 M 4153.26 3232.14 L 4153.26 3236.43 M 4153.26 3232.75 L 4152.85 3232.34 L 4152.45 3232.14 L 4151.83 3232.14 L 4151.42 3232.34 L 4151.01 3232.75 L 4150.81 3233.36 L 4150.81 3233.77 L 4151.01 3234.39 L 4151.42 3234.8 L 4151.83 3235 L 4152.45 3235 L 4152.85 3234.8 L 4153.26 3234.39 M 4149.46 3232.14 L 4149.46 3234.18 L 4149.25 3234.8 L 4148.85 3235 L 4148.23 3235 L 4147.82 3234.8 L 4147.21 3234.18 M 4147.21 3232.14 L 4147.21 3235 M 4145.25 3230.71 L 4145.25 3234.18 L 4145.04 3234.8 L 4144.63 3235 L 4144.22 3235 M 4145.86 3232.14 L 4144.43 3232.14" fill="none"  stroke-width="0.6"  /></g><polyline points="4191 3241.5 4171 3241.5 4171 3281.5" stroke-width="1" c_shapetype="line" stroke-linecap="round" fill="none" layerid="4" net="S$21" id="gge288" /><polyline points="4171 3281.5 4191 3281.5 4191 3241.5" stroke-width="1" c_shapetype="line" stroke-linecap="round" fill="none" layerid="4" net="S$24" id="gge289" /><g c_partid="part_pad" c_etype="pinpart" c_origin="4181,3251.5" layerid="11" number="1" net="SW1_2" plated ="Y" c_shapetype="group" id="gge278" locked="0" c_rotation="0" c_width="9.8425" c_height="9.8425" title="SW1_2" c_shape="ELLIPSE" pasteExpansion="0" solderExpansion="0.4"><ellipse cx="4181" cy="3251.5" rx="4.92125" ry="4.92125" stroke-width="0" /><circle c_padhole="1" cx="4181" cy="3251.5" r="1.9685" stroke-width="0" /></g><g c_partid="part_pad" c_etype="pinpart" c_origin="4181,3271.5" layerid="11" number="2" net="U2_GND" plated ="Y" c_shapetype="group" id="gge283" locked="0" c_rotation="0" c_width="9.8425" c_height="9.8425" title="U2_GND" c_shape="ELLIPSE" pasteExpansion="0" solderExpansion="0.4"><ellipse cx="4181" cy="3271.5" rx="4.92125" ry="4.92125" stroke-width="0" /><circle c_padhole="1" cx="4181" cy="3271.5" r="1.9685" stroke-width="0" /></g></g><g xmlns="http://www.w3.org/2000/svg" c_origin="4182.5,3120" c_para="package`SWITCH_PADS`" c_partid="part_import_gge139" id="gge139" c_shapetype="group" c_etype="pinpart" layerid="2" ><g c_partid="part_pcbtext" c_origin="4182.5,3097.16" c_rotation="0" c_mirror="" id="gge140" layerid="4" c_shapetype="group" ><path c_fontSize="4.5" c_fontFamily="" c_text="SW1" d="M 4179.64 3095.32 L 4180.05 3094.91 L 4180.66 3094.71 L 4181.48 3094.71 L 4182.09 3094.91 L 4182.5 3095.32 L 4182.5 3095.73 L 4182.3 3096.14 L 4182.09 3096.34 L 4181.68 3096.55 L 4180.45 3096.96 L 4180.05 3097.16 L 4179.84 3097.36 L 4179.64 3097.77 L 4179.64 3098.39 L 4180.05 3098.8 L 4180.66 3099 L 4181.48 3099 L 4182.09 3098.8 L 4182.5 3098.39 M 4178.29 3094.71 L 4177.26 3099 M 4176.24 3094.71 L 4177.26 3099 M 4176.24 3094.71 L 4175.22 3099 M 4174.2 3094.71 L 4175.22 3099 M 4172.85 3095.52 L 4172.44 3095.32 L 4171.82 3094.71 L 4171.82 3099" fill="none"  stroke-width="0.6" c_note="note_pre" /></g><g c_partid="part_pcbtext" c_origin="4182.5,3091.66" c_rotation="0" c_mirror="" id="gge142" layerid="4" c_shapetype="group" display="none"><path c_fontSize="4.5" c_fontFamily="" c_text="Switch_On/Off" d="M 4179.64 3089.82 L 4180.05 3089.41 L 4180.66 3089.21 L 4181.48 3089.21 L 4182.09 3089.41 L 4182.5 3089.82 L 4182.5 3090.23 L 4182.3 3090.64 L 4182.09 3090.84 L 4181.68 3091.05 L 4180.45 3091.46 L 4180.05 3091.66 L 4179.84 3091.86 L 4179.64 3092.27 L 4179.64 3092.89 L 4180.05 3093.3 L 4180.66 3093.5 L 4181.48 3093.5 L 4182.09 3093.3 L 4182.5 3092.89 M 4178.29 3090.64 L 4177.47 3093.5 M 4176.65 3090.64 L 4177.47 3093.5 M 4176.65 3090.64 L 4175.83 3093.5 M 4175.01 3090.64 L 4175.83 3093.5 M 4173.66 3089.21 L 4173.46 3089.41 L 4173.25 3089.21 L 4173.46 3089 L 4173.66 3089.21 M 4173.46 3090.64 L 4173.46 3093.5 M 4171.29 3089.21 L 4171.29 3092.68 L 4171.09 3093.3 L 4170.68 3093.5 L 4170.27 3093.5 M 4171.9 3090.64 L 4170.47 3090.64 M 4166.46 3091.25 L 4166.87 3090.84 L 4167.28 3090.64 L 4167.9 3090.64 L 4168.3 3090.84 L 4168.71 3091.25 L 4168.92 3091.86 L 4168.92 3092.27 L 4168.71 3092.89 L 4168.3 3093.3 L 4167.9 3093.5 L 4167.28 3093.5 L 4166.87 3093.3 L 4166.46 3092.89 M 4165.11 3089.21 L 4165.11 3093.5 M 4165.11 3091.46 L 4164.5 3090.84 L 4164.09 3090.64 L 4163.48 3090.64 L 4163.07 3090.84 L 4162.86 3091.46 L 4162.86 3093.5 M 4161.51 3094.93 L 4157.83 3094.93 M 4155.25 3089.21 L 4155.66 3089.41 L 4156.07 3089.82 L 4156.28 3090.23 L 4156.48 3090.84 L 4156.48 3091.86 L 4156.28 3092.48 L 4156.07 3092.89 L 4155.66 3093.3 L 4155.25 3093.5 L 4154.44 3093.5 L 4154.03 3093.3 L 4153.62 3092.89 L 4153.41 3092.48 L 4153.21 3091.86 L 4153.21 3090.84 L 4153.41 3090.23 L 4153.62 3089.82 L 4154.03 3089.41 L 4154.44 3089.21 L 4155.25 3089.21 M 4151.86 3090.64 L 4151.86 3093.5 M 4151.86 3091.46 L 4151.25 3090.84 L 4150.84 3090.64 L 4150.22 3090.64 L 4149.81 3090.84 L 4149.61 3091.46 L 4149.61 3093.5 M 4144.58 3088.39 L 4148.26 3094.93 M 4142 3089.21 L 4142.41 3089.41 L 4142.82 3089.82 L 4143.02 3090.23 L 4143.23 3090.84 L 4143.23 3091.86 L 4143.02 3092.48 L 4142.82 3092.89 L 4142.41 3093.3 L 4142 3093.5 L 4141.18 3093.5 L 4140.77 3093.3 L 4140.36 3092.89 L 4140.16 3092.48 L 4139.95 3091.86 L 4139.95 3090.84 L 4140.16 3090.23 L 4140.36 3089.82 L 4140.77 3089.41 L 4141.18 3089.21 L 4142 3089.21 M 4136.97 3089.21 L 4137.38 3089.21 L 4137.79 3089.41 L 4137.99 3090.02 L 4137.99 3093.5 M 4138.6 3090.64 L 4137.17 3090.64 M 4133.98 3089.21 L 4134.39 3089.21 L 4134.8 3089.41 L 4135 3090.02 L 4135 3093.5 M 4135.62 3090.64 L 4134.19 3090.64" fill="none"  stroke-width="0.6"  /></g><polyline points="4192.5 3100 4172.5 3100 4172.5 3140" stroke-width="1" c_shapetype="line" stroke-linecap="round" fill="none" layerid="4" net="S$21" id="gge154" /><polyline points="4172.5 3140 4192.5 3140 4192.5 3100" stroke-width="1" c_shapetype="line" stroke-linecap="round" fill="none" layerid="4" net="S$24" id="gge155" /><g c_partid="part_pad" c_etype="pinpart" c_origin="4182.5,3110" layerid="11" number="1" net="U2_5V" plated ="Y" c_shapetype="group" id="gge144" locked="0" c_rotation="0" c_width="9.8425" c_height="9.8425" title="U2_5V" c_shape="ELLIPSE" pasteExpansion="0" solderExpansion="0.4"><ellipse cx="4182.5" cy="3110" rx="4.92125" ry="4.92125" stroke-width="0" /><circle c_padhole="1" cx="4182.5" cy="3110" r="1.9685" stroke-width="0" /></g><g c_partid="part_pad" c_etype="pinpart" c_origin="4182.5,3130" layerid="11" number="2" net="SW1_2" plated ="Y" c_shapetype="group" id="gge149" locked="0" c_rotation="0" c_width="9.8425" c_height="9.8425" title="SW1_2" c_shape="ELLIPSE" pasteExpansion="0" solderExpansion="0.4"><ellipse cx="4182.5" cy="3130" rx="4.92125" ry="4.92125" stroke-width="0" /><circle c_padhole="1" cx="4182.5" cy="3130" r="1.9685" stroke-width="0" /></g></g><g xmlns="http://www.w3.org/2000/svg" c_origin="4322.5,3193.5" c_para="package`WEMOS D1 MINI`" c_partid="part_import_gge2" id="gge2" c_shapetype="group" c_etype="pinpart" layerid="1" ><g c_partid="part_pcbtext" c_origin="4322.5,3138.68" c_rotation="0" c_mirror="" id="gge3" layerid="3" c_shapetype="group" ><path c_fontSize="4.5" c_fontFamily="" c_text="ESP" d="M 4322.5 3136.23L4322.5 3140.52 M 4322.5 3136.23L4325.16 3136.23 M 4322.5 3138.27L4324.14 3138.27 M 4322.5 3140.52L4325.16 3140.52 M 4329.37 3136.84L4328.96 3136.43 L4328.35 3136.23 L4327.53 3136.23 L4326.92 3136.43 L4326.51 3136.84 L4326.51 3137.25 L4326.71 3137.66 L4326.92 3137.86 L4327.33 3138.07 L4328.55 3138.48 L4328.96 3138.68 L4329.17 3138.88 L4329.37 3139.29 L4329.37 3139.91 L4328.96 3140.32 L4328.35 3140.52 L4327.53 3140.52 L4326.92 3140.32 L4326.51 3139.91 M 4330.72 3136.23L4330.72 3140.52 M 4330.72 3136.23L4332.56 3136.23 L4333.18 3136.43 L4333.38 3136.63 L4333.59 3137.04 L4333.59 3137.66 L4333.38 3138.07 L4333.18 3138.27 L4332.56 3138.48 L4330.72 3138.48 " fill="none"  stroke-width="0.6" c_note="note_pre" /></g><g c_partid="part_pcbtext" c_origin="4322.5,3133.18" c_rotation="0" c_mirror="" id="gge5" layerid="3" c_shapetype="group" display="none"><path c_fontSize="4.5" c_fontFamily="" c_text="WEMOS_D1_MINI" d="M 4322.5 3130.73 L 4323.52 3135.02 M 4324.55 3130.73 L 4323.52 3135.02 M 4324.55 3130.73 L 4325.57 3135.02 M 4326.59 3130.73 L 4325.57 3135.02 M 4327.94 3130.73 L 4327.94 3135.02 M 4327.94 3130.73 L 4330.6 3130.73 M 4327.94 3132.77 L 4329.58 3132.77 M 4327.94 3135.02 L 4330.6 3135.02 M 4331.95 3130.73 L 4331.95 3135.02 M 4331.95 3130.73 L 4333.59 3135.02 M 4335.22 3130.73 L 4333.59 3135.02 M 4335.22 3130.73 L 4335.22 3135.02 M 4337.8 3130.73 L 4337.39 3130.93 L 4336.98 3131.34 L 4336.78 3131.75 L 4336.57 3132.36 L 4336.57 3133.38 L 4336.78 3134 L 4336.98 3134.41 L 4337.39 3134.82 L 4337.8 3135.02 L 4338.62 3135.02 L 4339.03 3134.82 L 4339.44 3134.41 L 4339.64 3134 L 4339.85 3133.38 L 4339.85 3132.36 L 4339.64 3131.75 L 4339.44 3131.34 L 4339.03 3130.93 L 4338.62 3130.73 L 4337.8 3130.73 M 4344.06 3131.34 L 4343.65 3130.93 L 4343.04 3130.73 L 4342.22 3130.73 L 4341.6 3130.93 L 4341.2 3131.34 L 4341.2 3131.75 L 4341.4 3132.16 L 4341.6 3132.36 L 4342.01 3132.57 L 4343.24 3132.98 L 4343.65 3133.18 L 4343.85 3133.38 L 4344.06 3133.79 L 4344.06 3134.41 L 4343.65 3134.82 L 4343.04 3135.02 L 4342.22 3135.02 L 4341.6 3134.82 L 4341.2 3134.41 M 4345.41 3136.45 L 4349.09 3136.45 M 4350.44 3130.73 L 4350.44 3135.02 M 4350.44 3130.73 L 4351.87 3130.73 L 4352.49 3130.93 L 4352.9 3131.34 L 4353.1 3131.75 L 4353.3 3132.36 L 4353.3 3133.38 L 4353.1 3134 L 4352.9 3134.41 L 4352.49 3134.82 L 4351.87 3135.02 L 4350.44 3135.02 M 4354.65 3131.54 L 4355.06 3131.34 L 4355.68 3130.73 L 4355.68 3135.02 M 4357.03 3136.45 L 4360.71 3136.45 M 4362.06 3130.73 L 4362.06 3135.02 M 4362.06 3130.73 L 4363.7 3135.02 M 4365.33 3130.73 L 4363.7 3135.02 M 4365.33 3130.73 L 4365.33 3135.02 M 4366.68 3130.73 L 4366.68 3135.02 M 4368.03 3130.73 L 4368.03 3135.02 M 4368.03 3130.73 L 4370.9 3135.02 M 4370.9 3130.73 L 4370.9 3135.02 M 4372.25 3130.73 L 4372.25 3135.02" fill="none"  stroke-width="0.6"  /></g><polyline points="4255 3233 4255 3153" stroke-width="1" c_shapetype="line" stroke-linecap="round" fill="none" layerid="3" net="" id="gge7" /><polyline points="4390 3208 4390 3178 4370 3178 4370 3208 4390 3208" stroke-width="1" c_shapetype="line" stroke-linecap="round" fill="none" layerid="3" net="" id="gge8" /><polyline points="4365 3223 4365 3238 4385 3238 4385 3223 4365 3223" stroke-width="1" c_shapetype="line" stroke-linecap="round" fill="none" layerid="3" net="" id="gge9" /><polyline points="4283 3220 4283 3166 4348 3166 4348 3220 4283 3220" stroke-width="1" c_shapetype="line" stroke-linecap="round" fill="none" layerid="3" net="" id="gge10" /><polyline points="4283 3220 4255 3220" stroke-width="1" c_shapetype="line" stroke-linecap="round" fill="none" layerid="3" net="" id="gge11" /><polyline points="4283 3166 4255 3166" stroke-width="1" c_shapetype="line" stroke-linecap="round" fill="none" layerid="3" net="" id="gge12" /><polyline points="4360.18 3243 4365.18 3238 4390.18 3238" stroke-width="1" c_shapetype="line" stroke-linecap="round" fill="none" layerid="3" net="" id="gge13" /><polyline points="4265.18 3143 4390.18 3143 4390.18 3238" stroke-width="1" c_shapetype="line" stroke-linecap="round" fill="none" layerid="3" net="" id="gge14" /><polyline points="4265.18 3243 4360.18 3243" stroke-width="1" c_shapetype="line" stroke-linecap="round" fill="none" layerid="3" net="" id="gge15" /><path d="M 4265.0001 3242.9999 A 9.99998 9.99998 0 0 1 4255.0001 3232.9999" c_shapetype="line" fill="none" stroke-width="1" c_helper_type="arc2" net="" layerid="3" id="gge16" /><path d="M 4255.0001 3153.0001 A 9.99998 9.99998 0 0 1 4265.0001 3143.0001" c_shapetype="line" fill="none" stroke-width="1" c_helper_type="arc2" net="" layerid="3" id="gge17" /><g c_partid="part_pcbtext" c_origin="4365.25,3171" c_rotation="90" c_mirror="" id="gge18" layerid="3" c_shapetype="group" ><path c_fontSize="3.2" c_fontFamily="" c_text="D1  mini\n V2.3.0\nWEMOS.CC" d="M 4363.5 3171 L 4366.56 3171 M 4363.5 3171 L 4363.5 3169.98 L 4363.65 3169.55 L 4363.94 3169.25 L 4364.23 3169.11 L 4364.67 3168.96 L 4365.4 3168.96 L 4365.83 3169.11 L 4366.12 3169.25 L 4366.41 3169.55 L 4366.56 3169.98 L 4366.56 3171 M 4364.09 3168 L 4363.94 3167.71 L 4363.5 3167.28 L 4366.56 3167.28 M 4364.52 3161.84 L 4366.56 3161.84 M 4365.1 3161.84 L 4364.67 3161.4 L 4364.52 3161.11 L 4364.52 3160.67 L 4364.67 3160.38 L 4365.1 3160.24 L 4366.56 3160.24 M 4365.1 3160.24 L 4364.67 3159.8 L 4364.52 3159.51 L 4364.52 3159.07 L 4364.67 3158.78 L 4365.1 3158.64 L 4366.56 3158.64 M 4363.5 3157.68 L 4363.65 3157.53 L 4363.5 3157.39 L 4363.36 3157.53 L 4363.5 3157.68 M 4364.52 3157.53 L 4366.56 3157.53 M 4364.52 3156.43 L 4366.56 3156.43 M 4365.1 3156.43 L 4364.67 3155.99 L 4364.52 3155.7 L 4364.52 3155.26 L 4364.67 3154.97 L 4365.1 3154.83 L 4366.56 3154.83 M 4363.5 3153.87 L 4363.65 3153.72 L 4363.5 3153.57 L 4363.36 3153.72 L 4363.5 3153.87 M 4364.52 3153.72 L 4366.56 3153.72 M 4370.7 3168.76 L 4373.76 3167.6 M 4370.7 3166.43 L 4373.76 3167.6 M 4371.43 3165.33 L 4371.29 3165.33 L 4371 3165.18 L 4370.85 3165.04 L 4370.7 3164.75 L 4370.7 3164.16 L 4370.85 3163.87 L 4371 3163.73 L 4371.29 3163.58 L 4371.58 3163.58 L 4371.87 3163.73 L 4372.3 3164.02 L 4373.76 3165.47 L 4373.76 3163.44 M 4373.03 3162.33 L 4373.18 3162.48 L 4373.32 3162.33 L 4373.18 3162.19 L 4373.03 3162.33 M 4370.7 3160.93 L 4370.7 3159.33 L 4371.87 3160.21 L 4371.87 3159.77 L 4372.01 3159.48 L 4372.16 3159.33 L 4372.6 3159.19 L 4372.89 3159.19 L 4373.32 3159.33 L 4373.61 3159.63 L 4373.76 3160.06 L 4373.76 3160.5 L 4373.61 3160.93 L 4373.47 3161.08 L 4373.18 3161.23 M 4373.03 3158.08 L 4373.18 3158.23 L 4373.32 3158.08 L 4373.18 3157.94 L 4373.03 3158.08 M 4370.7 3156.11 L 4370.85 3156.54 L 4371.29 3156.83 L 4372.01 3156.98 L 4372.45 3156.98 L 4373.18 3156.83 L 4373.61 3156.54 L 4373.76 3156.11 L 4373.76 3155.81 L 4373.61 3155.38 L 4373.18 3155.09 L 4372.45 3154.94 L 4372.01 3154.94 L 4371.29 3155.09 L 4370.85 3155.38 L 4370.7 3155.81 L 4370.7 3156.11 M 4377.9 3171 L 4380.96 3170.27 M 4377.9 3169.55 L 4380.96 3170.27 M 4377.9 3169.55 L 4380.96 3168.82 M 4377.9 3168.09 L 4380.96 3168.82 M 4377.9 3167.13 L 4380.96 3167.13 M 4377.9 3167.13 L 4377.9 3165.24 M 4379.36 3167.13 L 4379.36 3165.97 M 4380.96 3167.13 L 4380.96 3165.24 M 4377.9 3164.28 L 4380.96 3164.28 M 4377.9 3164.28 L 4380.96 3163.12 M 4377.9 3161.95 L 4380.96 3163.12 M 4377.9 3161.95 L 4380.96 3161.95 M 4377.9 3160.12 L 4378.05 3160.41 L 4378.34 3160.7 L 4378.63 3160.85 L 4379.07 3160.99 L 4379.8 3160.99 L 4380.23 3160.85 L 4380.52 3160.7 L 4380.81 3160.41 L 4380.96 3160.12 L 4380.96 3159.54 L 4380.81 3159.25 L 4380.52 3158.96 L 4380.23 3158.81 L 4379.8 3158.67 L 4379.07 3158.67 L 4378.63 3158.81 L 4378.34 3158.96 L 4378.05 3159.25 L 4377.9 3159.54 L 4377.9 3160.12 M 4378.34 3155.67 L 4378.05 3155.96 L 4377.9 3156.4 L 4377.9 3156.98 L 4378.05 3157.41 L 4378.34 3157.71 L 4378.63 3157.71 L 4378.92 3157.56 L 4379.07 3157.41 L 4379.21 3157.12 L 4379.5 3156.25 L 4379.65 3155.96 L 4379.8 3155.81 L 4380.09 3155.67 L 4380.52 3155.67 L 4380.81 3155.96 L 4380.96 3156.4 L 4380.96 3156.98 L 4380.81 3157.41 L 4380.52 3157.71 M 4380.23 3154.56 L 4380.38 3154.71 L 4380.52 3154.56 L 4380.38 3154.42 L 4380.23 3154.56 M 4378.63 3151.28 L 4378.34 3151.42 L 4378.05 3151.71 L 4377.9 3152 L 4377.9 3152.59 L 4378.05 3152.88 L 4378.34 3153.17 L 4378.63 3153.31 L 4379.07 3153.46 L 4379.8 3153.46 L 4380.23 3153.31 L 4380.52 3153.17 L 4380.81 3152.88 L 4380.96 3152.59 L 4380.96 3152 L 4380.81 3151.71 L 4380.52 3151.42 L 4380.23 3151.28 M 4378.63 3148.13 L 4378.34 3148.28 L 4378.05 3148.57 L 4377.9 3148.86 L 4377.9 3149.44 L 4378.05 3149.73 L 4378.34 3150.03 L 4378.63 3150.17 L 4379.07 3150.32 L 4379.8 3150.32 L 4380.23 3150.17 L 4380.52 3150.03 L 4380.81 3149.73 L 4380.96 3149.44 L 4380.96 3148.86 L 4380.81 3148.57 L 4380.52 3148.28 L 4380.23 3148.13" fill="none"  stroke-width="0.6"  /></g><g c_partid="part_pcbtext" c_origin="4285.18,3230" c_rotation="90" c_mirror="0" id="gge20" layerid="3" c_shapetype="group" ><path c_fontSize="3" c_fontFamily="" c_text="RST" d="M 4283.54 3230 L 4286.41 3230 M 4283.54 3230 L 4283.54 3228.77 L 4283.68 3228.36 L 4283.82 3228.23 L 4284.09 3228.09 L 4284.36 3228.09 L 4284.63 3228.23 L 4284.77 3228.36 L 4284.91 3228.77 L 4284.91 3230 M 4284.91 3229.05 L 4286.41 3228.09 M 4283.95 3225.28 L 4283.68 3225.55 L 4283.54 3225.96 L 4283.54 3226.51 L 4283.68 3226.92 L 4283.95 3227.19 L 4284.23 3227.19 L 4284.5 3227.05 L 4284.63 3226.92 L 4284.77 3226.65 L 4285.04 3225.83 L 4285.18 3225.55 L 4285.32 3225.42 L 4285.59 3225.28 L 4286 3225.28 L 4286.27 3225.55 L 4286.41 3225.96 L 4286.41 3226.51 L 4286.27 3226.92 L 4286 3227.19 M 4283.54 3223.43 L 4286.41 3223.43 M 4283.54 3224.38 L 4283.54 3222.47" fill="none"  stroke-width="0.6"  /></g><g c_partid="part_pcbtext" c_origin="4295.18,3230" c_rotation="90" c_mirror="0" id="gge22" layerid="3" c_shapetype="group" ><path c_fontSize="3" c_fontFamily="" c_text="A0" d="M 4293.54 3228.91 L 4296.41 3230 M 4293.54 3228.91 L 4296.41 3227.82 M 4295.45 3229.59 L 4295.45 3228.23 M 4293.54 3226.1 L 4293.68 3226.51 L 4294.09 3226.78 L 4294.77 3226.92 L 4295.18 3226.92 L 4295.86 3226.78 L 4296.27 3226.51 L 4296.41 3226.1 L 4296.41 3225.83 L 4296.27 3225.42 L 4295.86 3225.15 L 4295.18 3225.01 L 4294.77 3225.01 L 4294.09 3225.15 L 4293.68 3225.42 L 4293.54 3225.83 L 4293.54 3226.1" fill="none"  stroke-width="0.6"  /></g><g c_partid="part_pcbtext" c_origin="4305.18,3230" c_rotation="90" c_mirror="0" id="gge24" layerid="3" c_shapetype="group" ><path c_fontSize="3" c_fontFamily="" c_text="D0" d="M 4303.54 3230 L 4306.41 3230 M 4303.54 3230 L 4303.54 3229.05 L 4303.68 3228.64 L 4303.95 3228.36 L 4304.23 3228.23 L 4304.63 3228.09 L 4305.32 3228.09 L 4305.73 3228.23 L 4306 3228.36 L 4306.27 3228.64 L 4306.41 3229.05 L 4306.41 3230 M 4303.54 3226.37 L 4303.68 3226.78 L 4304.09 3227.05 L 4304.77 3227.19 L 4305.18 3227.19 L 4305.86 3227.05 L 4306.27 3226.78 L 4306.41 3226.37 L 4306.41 3226.1 L 4306.27 3225.69 L 4305.86 3225.42 L 4305.18 3225.28 L 4304.77 3225.28 L 4304.09 3225.42 L 4303.68 3225.69 L 4303.54 3226.1 L 4303.54 3226.37" fill="none"  stroke-width="0.6"  /></g><g c_partid="part_pcbtext" c_origin="4315.18,3230" c_rotation="90" c_mirror="0" id="gge26" layerid="3" c_shapetype="group" ><path c_fontSize="3" c_fontFamily="" c_text="D5" d="M 4313.54 3230 L 4316.41 3230 M 4313.54 3230 L 4313.54 3229.05 L 4313.68 3228.64 L 4313.95 3228.36 L 4314.23 3228.23 L 4314.63 3228.09 L 4315.32 3228.09 L 4315.73 3228.23 L 4316 3228.36 L 4316.27 3228.64 L 4316.41 3229.05 L 4316.41 3230 M 4313.54 3225.55 L 4313.54 3226.92 L 4314.77 3227.05 L 4314.63 3226.92 L 4314.5 3226.51 L 4314.5 3226.1 L 4314.63 3225.69 L 4314.91 3225.42 L 4315.32 3225.28 L 4315.59 3225.28 L 4316 3225.42 L 4316.27 3225.69 L 4316.41 3226.1 L 4316.41 3226.51 L 4316.27 3226.92 L 4316.13 3227.05 L 4315.86 3227.19" fill="none"  stroke-width="0.6"  /></g><g c_partid="part_pcbtext" c_origin="4325.18,3230" c_rotation="90" c_mirror="0" id="gge28" layerid="3" c_shapetype="group" ><path c_fontSize="3" c_fontFamily="" c_text="D6" d="M 4323.54 3230 L 4326.41 3230 M 4323.54 3230 L 4323.54 3229.05 L 4323.68 3228.64 L 4323.95 3228.36 L 4324.23 3228.23 L 4324.63 3228.09 L 4325.32 3228.09 L 4325.73 3228.23 L 4326 3228.36 L 4326.27 3228.64 L 4326.41 3229.05 L 4326.41 3230 M 4323.95 3225.55 L 4323.68 3225.69 L 4323.54 3226.1 L 4323.54 3226.37 L 4323.68 3226.78 L 4324.09 3227.05 L 4324.77 3227.19 L 4325.45 3227.19 L 4326 3227.05 L 4326.27 3226.78 L 4326.41 3226.37 L 4326.41 3226.24 L 4326.27 3225.83 L 4326 3225.55 L 4325.59 3225.42 L 4325.45 3225.42 L 4325.04 3225.55 L 4324.77 3225.83 L 4324.63 3226.24 L 4324.63 3226.37 L 4324.77 3226.78 L 4325.04 3227.05 L 4325.45 3227.19" fill="none"  stroke-width="0.6"  /></g><g c_partid="part_pcbtext" c_origin="4335.18,3230" c_rotation="90" c_mirror="0" id="gge30" layerid="3" c_shapetype="group" ><path c_fontSize="3" c_fontFamily="" c_text="D7" d="M 4333.54 3230 L 4336.41 3230 M 4333.54 3230 L 4333.54 3229.05 L 4333.68 3228.64 L 4333.95 3228.36 L 4334.23 3228.23 L 4334.63 3228.09 L 4335.32 3228.09 L 4335.73 3228.23 L 4336 3228.36 L 4336.27 3228.64 L 4336.41 3229.05 L 4336.41 3230 M 4333.54 3225.28 L 4336.41 3226.65 M 4333.54 3227.19 L 4333.54 3225.28" fill="none"  stroke-width="0.6"  /></g><g c_partid="part_pcbtext" c_origin="4345.18,3230" c_rotation="90" c_mirror="0" id="gge32" layerid="3" c_shapetype="group" ><path c_fontSize="3" c_fontFamily="" c_text="D8" d="M 4343.54 3230 L 4346.41 3230 M 4343.54 3230 L 4343.54 3229.05 L 4343.68 3228.64 L 4343.95 3228.36 L 4344.23 3228.23 L 4344.63 3228.09 L 4345.32 3228.09 L 4345.73 3228.23 L 4346 3228.36 L 4346.27 3228.64 L 4346.41 3229.05 L 4346.41 3230 M 4343.54 3226.51 L 4343.68 3226.92 L 4343.95 3227.05 L 4344.23 3227.05 L 4344.5 3226.92 L 4344.63 3226.65 L 4344.77 3226.1 L 4344.91 3225.69 L 4345.18 3225.42 L 4345.45 3225.28 L 4345.86 3225.28 L 4346.13 3225.42 L 4346.27 3225.55 L 4346.41 3225.96 L 4346.41 3226.51 L 4346.27 3226.92 L 4346.13 3227.05 L 4345.86 3227.19 L 4345.45 3227.19 L 4345.18 3227.05 L 4344.91 3226.78 L 4344.77 3226.37 L 4344.63 3225.83 L 4344.5 3225.55 L 4344.23 3225.42 L 4343.95 3225.42 L 4343.68 3225.55 L 4343.54 3225.96 L 4343.54 3226.51" fill="none"  stroke-width="0.6"  /></g><g c_partid="part_pcbtext" c_origin="4355.18,3230" c_rotation="90" c_mirror="0" id="gge34" layerid="3" c_shapetype="group" ><path c_fontSize="3" c_fontFamily="" c_text="3V3" d="M 4353.54 3229.73 L 4353.54 3228.23 L 4354.63 3229.05 L 4354.63 3228.64 L 4354.77 3228.36 L 4354.91 3228.23 L 4355.32 3228.09 L 4355.59 3228.09 L 4356 3228.23 L 4356.27 3228.5 L 4356.41 3228.91 L 4356.41 3229.32 L 4356.27 3229.73 L 4356.13 3229.86 L 4355.86 3230 M 4353.54 3227.19 L 4356.41 3226.1 M 4353.54 3225.01 L 4356.41 3226.1 M 4353.54 3223.84 L 4353.54 3222.34 L 4354.63 3223.15 L 4354.63 3222.75 L 4354.77 3222.47 L 4354.91 3222.34 L 4355.32 3222.2 L 4355.59 3222.2 L 4356 3222.34 L 4356.27 3222.61 L 4356.41 3223.02 L 4356.41 3223.43 L 4356.27 3223.84 L 4356.13 3223.97 L 4355.86 3224.11" fill="none"  stroke-width="0.6"  /></g><g c_partid="part_pcbtext" c_origin="4354.82,3161" c_rotation="90" c_mirror="0" id="gge36" layerid="3" c_shapetype="group" ><path c_fontSize="3" c_fontFamily="" c_text="5V" d="M 4353.18 3159.36 L 4353.18 3160.73 L 4354.41 3160.86 L 4354.27 3160.73 L 4354.14 3160.32 L 4354.14 3159.91 L 4354.27 3159.5 L 4354.55 3159.23 L 4354.96 3159.09 L 4355.23 3159.09 L 4355.64 3159.23 L 4355.91 3159.5 L 4356.05 3159.91 L 4356.05 3160.32 L 4355.91 3160.73 L 4355.77 3160.86 L 4355.5 3161 M 4353.18 3158.19 L 4356.05 3157.1 M 4353.18 3156.01 L 4356.05 3157.1" fill="none"  stroke-width="0.6"  /></g><g c_partid="part_pcbtext" c_origin="4344.82,3164" c_rotation="90" c_mirror="0" id="gge38" layerid="3" c_shapetype="group" ><path c_fontSize="3" c_fontFamily="" c_text="GND" d="M 4343.87 3161.95 L 4343.59 3162.09 L 4343.32 3162.36 L 4343.18 3162.64 L 4343.18 3163.18 L 4343.32 3163.45 L 4343.59 3163.73 L 4343.87 3163.86 L 4344.27 3164 L 4344.96 3164 L 4345.37 3163.86 L 4345.64 3163.73 L 4345.91 3163.45 L 4346.05 3163.18 L 4346.05 3162.64 L 4345.91 3162.36 L 4345.64 3162.09 L 4345.37 3161.95 L 4344.96 3161.95 M 4344.96 3162.64 L 4344.96 3161.95 M 4343.18 3161.05 L 4346.05 3161.05 M 4343.18 3161.05 L 4346.05 3159.15 M 4343.18 3159.15 L 4346.05 3159.15 M 4343.18 3158.25 L 4346.05 3158.25 M 4343.18 3158.25 L 4343.18 3157.29 L 4343.32 3156.88 L 4343.59 3156.61 L 4343.87 3156.47 L 4344.27 3156.34 L 4344.96 3156.34 L 4345.37 3156.47 L 4345.64 3156.61 L 4345.91 3156.88 L 4346.05 3157.29 L 4346.05 3158.25" fill="none"  stroke-width="0.6"  /></g><g c_partid="part_pcbtext" c_origin="4334.82,3161" c_rotation="90" c_mirror="0" id="gge40" layerid="3" c_shapetype="group" ><path c_fontSize="3" c_fontFamily="" c_text="D4" d="M 4333.18 3161 L 4336.05 3161 M 4333.18 3161 L 4333.18 3160.05 L 4333.32 3159.64 L 4333.59 3159.36 L 4333.87 3159.23 L 4334.27 3159.09 L 4334.96 3159.09 L 4335.37 3159.23 L 4335.64 3159.36 L 4335.91 3159.64 L 4336.05 3160.05 L 4336.05 3161 M 4333.18 3156.83 L 4335.09 3158.19 L 4335.09 3156.15 M 4333.18 3156.83 L 4336.05 3156.83" fill="none"  stroke-width="0.6"  /></g><g c_partid="part_pcbtext" c_origin="4324.82,3161" c_rotation="90" c_mirror="0" id="gge42" layerid="3" c_shapetype="group" ><path c_fontSize="3" c_fontFamily="" c_text="D3" d="M 4323.18 3161 L 4326.05 3161 M 4323.18 3161 L 4323.18 3160.05 L 4323.32 3159.64 L 4323.59 3159.36 L 4323.87 3159.23 L 4324.27 3159.09 L 4324.96 3159.09 L 4325.37 3159.23 L 4325.64 3159.36 L 4325.91 3159.64 L 4326.05 3160.05 L 4326.05 3161 M 4323.18 3157.92 L 4323.18 3156.42 L 4324.27 3157.24 L 4324.27 3156.83 L 4324.41 3156.55 L 4324.55 3156.42 L 4324.96 3156.28 L 4325.23 3156.28 L 4325.64 3156.42 L 4325.91 3156.69 L 4326.05 3157.1 L 4326.05 3157.51 L 4325.91 3157.92 L 4325.77 3158.05 L 4325.5 3158.19" fill="none"  stroke-width="0.6"  /></g><g c_partid="part_pcbtext" c_origin="4314.82,3161" c_rotation="90" c_mirror="0" id="gge44" layerid="3" c_shapetype="group" ><path c_fontSize="3" c_fontFamily="" c_text="D2" d="M 4313.18 3161 L 4316.05 3161 M 4313.18 3161 L 4313.18 3160.05 L 4313.32 3159.64 L 4313.59 3159.36 L 4313.87 3159.23 L 4314.27 3159.09 L 4314.96 3159.09 L 4315.37 3159.23 L 4315.64 3159.36 L 4315.91 3159.64 L 4316.05 3160.05 L 4316.05 3161 M 4313.87 3158.05 L 4313.73 3158.05 L 4313.46 3157.92 L 4313.32 3157.78 L 4313.18 3157.51 L 4313.18 3156.96 L 4313.32 3156.69 L 4313.46 3156.55 L 4313.73 3156.42 L 4314 3156.42 L 4314.27 3156.55 L 4314.68 3156.83 L 4316.05 3158.19 L 4316.05 3156.28" fill="none"  stroke-width="0.6"  /></g><g c_partid="part_pcbtext" c_origin="4304.82,3160" c_rotation="90" c_mirror="0" id="gge46" layerid="3" c_shapetype="group" ><path c_fontSize="3" c_fontFamily="" c_text="D1" d="M 4303.18 3160 L 4306.05 3160 M 4303.18 3160 L 4303.18 3159.05 L 4303.32 3158.64 L 4303.59 3158.36 L 4303.87 3158.23 L 4304.27 3158.09 L 4304.96 3158.09 L 4305.37 3158.23 L 4305.64 3158.36 L 4305.91 3158.64 L 4306.05 3159.05 L 4306.05 3160 M 4303.73 3157.19 L 4303.59 3156.92 L 4303.18 3156.51 L 4306.05 3156.51" fill="none"  stroke-width="0.6"  /></g><g c_partid="part_pcbtext" c_origin="4294.82,3161" c_rotation="90" c_mirror="0" id="gge48" layerid="3" c_shapetype="group" ><path c_fontSize="3" c_fontFamily="" c_text="RX" d="M 4293.18 3161 L 4296.05 3161 M 4293.18 3161 L 4293.18 3159.77 L 4293.32 3159.36 L 4293.46 3159.23 L 4293.73 3159.09 L 4294 3159.09 L 4294.27 3159.23 L 4294.41 3159.36 L 4294.55 3159.77 L 4294.55 3161 M 4294.55 3160.05 L 4296.05 3159.09 M 4293.18 3158.19 L 4296.05 3156.28 M 4293.18 3156.28 L 4296.05 3158.19" fill="none"  stroke-width="0.6"  /></g><g c_partid="part_pcbtext" c_origin="4284.82,3161" c_rotation="90" c_mirror="0" id="gge50" layerid="3" c_shapetype="group" ><path c_fontSize="3" c_fontFamily="" c_text="TX" d="M 4283.18 3160.05 L 4286.05 3160.05 M 4283.18 3161 L 4283.18 3159.09 M 4283.18 3158.19 L 4286.05 3156.28 M 4283.18 3156.28 L 4286.05 3158.19" fill="none"  stroke-width="0.6"  /></g><g c_partid="part_pcbtext" c_origin="4267.18,3207" c_rotation="90" c_mirror="" id="gge52" layerid="3" c_shapetype="group" ><path c_fontSize="4" c_fontFamily="" c_text="ANTENNA" d="M 4265 3205.55 L 4268.82 3207 M 4265 3205.55 L 4268.82 3204.09 M 4267.54 3206.45 L 4267.54 3204.64 M 4265 3202.89 L 4268.82 3202.89 M 4265 3202.89 L 4268.82 3200.35 M 4265 3200.35 L 4268.82 3200.35 M 4265 3197.87 L 4268.82 3197.87 M 4265 3199.15 L 4265 3196.6 M 4265 3195.4 L 4268.82 3195.4 M 4265 3195.4 L 4265 3193.04 M 4266.82 3195.4 L 4266.82 3193.95 M 4268.82 3195.4 L 4268.82 3193.04 M 4265 3191.84 L 4268.82 3191.84 M 4265 3191.84 L 4268.82 3189.29 M 4265 3189.29 L 4268.82 3189.29 M 4265 3188.09 L 4268.82 3188.09 M 4265 3188.09 L 4268.82 3185.55 M 4265 3185.55 L 4268.82 3185.55 M 4265 3182.89 L 4268.82 3184.35 M 4265 3182.89 L 4268.82 3181.44 M 4267.54 3183.8 L 4267.54 3181.98" fill="none"  stroke-width="0.6"  /></g><g c_partid="part_pcbtext" c_origin="4380.64,3204" c_rotation="90" c_mirror="" id="gge54" layerid="3" c_shapetype="group" ><path c_fontSize="3" c_fontFamily="" c_text="USB MICRO" d="M 4379 3204 L 4381.05 3204 L 4381.46 3203.86 L 4381.73 3203.59 L 4381.87 3203.18 L 4381.87 3202.91 L 4381.73 3202.5 L 4381.46 3202.23 L 4381.05 3202.09 L 4379 3202.09 M 4379.41 3199.28 L 4379.14 3199.55 L 4379 3199.96 L 4379 3200.51 L 4379.14 3200.92 L 4379.41 3201.19 L 4379.69 3201.19 L 4379.96 3201.05 L 4380.09 3200.92 L 4380.23 3200.65 L 4380.5 3199.83 L 4380.64 3199.55 L 4380.78 3199.42 L 4381.05 3199.28 L 4381.46 3199.28 L 4381.73 3199.55 L 4381.87 3199.96 L 4381.87 3200.51 L 4381.73 3200.92 L 4381.46 3201.19 M 4379 3198.38 L 4381.87 3198.38 M 4379 3198.38 L 4379 3197.15 L 4379.14 3196.75 L 4379.28 3196.61 L 4379.55 3196.47 L 4379.82 3196.47 L 4380.09 3196.61 L 4380.23 3196.75 L 4380.37 3197.15 M 4380.37 3198.38 L 4380.37 3197.15 L 4380.5 3196.75 L 4380.64 3196.61 L 4380.91 3196.47 L 4381.32 3196.47 L 4381.59 3196.61 L 4381.73 3196.75 L 4381.87 3197.15 L 4381.87 3198.38 M 4379 3193.47 L 4381.87 3193.47 M 4379 3193.47 L 4381.87 3192.38 M 4379 3191.29 L 4381.87 3192.38 M 4379 3191.29 L 4381.87 3191.29 M 4379 3190.39 L 4381.87 3190.39 M 4379.69 3187.45 L 4379.41 3187.58 L 4379.14 3187.85 L 4379 3188.13 L 4379 3188.67 L 4379.14 3188.95 L 4379.41 3189.22 L 4379.69 3189.35 L 4380.09 3189.49 L 4380.78 3189.49 L 4381.19 3189.35 L 4381.46 3189.22 L 4381.73 3188.95 L 4381.87 3188.67 L 4381.87 3188.13 L 4381.73 3187.85 L 4381.46 3187.58 L 4381.19 3187.45 M 4379 3186.55 L 4381.87 3186.55 M 4379 3186.55 L 4379 3185.32 L 4379.14 3184.91 L 4379.28 3184.77 L 4379.55 3184.64 L 4379.82 3184.64 L 4380.09 3184.77 L 4380.23 3184.91 L 4380.37 3185.32 L 4380.37 3186.55 M 4380.37 3185.59 L 4381.87 3184.64 M 4379 3182.92 L 4379.14 3183.19 L 4379.41 3183.46 L 4379.69 3183.6 L 4380.09 3183.74 L 4380.78 3183.74 L 4381.19 3183.6 L 4381.46 3183.46 L 4381.73 3183.19 L 4381.87 3182.92 L 4381.87 3182.37 L 4381.73 3182.1 L 4381.46 3181.83 L 4381.19 3181.69 L 4380.78 3181.55 L 4380.09 3181.55 L 4379.69 3181.69 L 4379.41 3181.83 L 4379.14 3182.1 L 4379 3182.37 L 4379 3182.92" fill="none"  stroke-width="0.6"  /></g><g c_partid="part_pcbtext" c_origin="4382,3234.36" c_rotation="180" c_mirror="" id="gge56" layerid="3" c_shapetype="group" ><path c_fontSize="3" c_fontFamily="" c_text="RESET\nSWITCH" d="M 4382 3236 L 4382 3233.13 M 4382 3236 L 4380.77 3236 L 4380.36 3235.86 L 4380.23 3235.72 L 4380.09 3235.45 L 4380.09 3235.18 L 4380.23 3234.91 L 4380.36 3234.77 L 4380.77 3234.63 L 4382 3234.63 M 4381.05 3234.63 L 4380.09 3233.13 M 4379.19 3236 L 4379.19 3233.13 M 4379.19 3236 L 4377.42 3236 M 4379.19 3234.63 L 4378.1 3234.63 M 4379.19 3233.13 L 4377.42 3233.13 M 4374.61 3235.59 L 4374.88 3235.86 L 4375.29 3236 L 4375.84 3236 L 4376.25 3235.86 L 4376.52 3235.59 L 4376.52 3235.31 L 4376.38 3235.04 L 4376.25 3234.91 L 4375.97 3234.77 L 4375.15 3234.5 L 4374.88 3234.36 L 4374.75 3234.22 L 4374.61 3233.95 L 4374.61 3233.54 L 4374.88 3233.27 L 4375.29 3233.13 L 4375.84 3233.13 L 4376.25 3233.27 L 4376.52 3233.54 M 4373.71 3236 L 4373.71 3233.13 M 4373.71 3236 L 4371.94 3236 M 4373.71 3234.63 L 4372.62 3234.63 M 4373.71 3233.13 L 4371.94 3233.13 M 4370.08 3236 L 4370.08 3233.13 M 4371.04 3236 L 4369.13 3236 M 4380.09 3228.59 L 4380.36 3228.86 L 4380.77 3229 L 4381.32 3229 L 4381.73 3228.86 L 4382 3228.59 L 4382 3228.31 L 4381.86 3228.04 L 4381.73 3227.91 L 4381.45 3227.77 L 4380.64 3227.5 L 4380.36 3227.36 L 4380.23 3227.22 L 4380.09 3226.95 L 4380.09 3226.54 L 4380.36 3226.27 L 4380.77 3226.13 L 4381.32 3226.13 L 4381.73 3226.27 L 4382 3226.54 M 4379.19 3229 L 4378.51 3226.13 M 4377.83 3229 L 4378.51 3226.13 M 4377.83 3229 L 4377.15 3226.13 M 4376.46 3229 L 4377.15 3226.13 M 4375.56 3229 L 4375.56 3226.13 M 4373.71 3229 L 4373.71 3226.13 M 4374.66 3229 L 4372.75 3229 M 4369.81 3228.31 L 4369.95 3228.59 L 4370.22 3228.86 L 4370.49 3229 L 4371.04 3229 L 4371.31 3228.86 L 4371.58 3228.59 L 4371.72 3228.31 L 4371.85 3227.91 L 4371.85 3227.22 L 4371.72 3226.81 L 4371.58 3226.54 L 4371.31 3226.27 L 4371.04 3226.13 L 4370.49 3226.13 L 4370.22 3226.27 L 4369.95 3226.54 L 4369.81 3226.81 M 4368.91 3229 L 4368.91 3226.13 M 4367 3229 L 4367 3226.13 M 4368.91 3227.63 L 4367 3227.63" fill="none"  stroke-width="0.6"  /></g><g c_partid="part_pad" c_etype="pinpart" c_origin="4285,3238" layerid="11" number="RST" net="U2_RST" plated ="Y" c_shapetype="group" id="gge58" locked="0" c_rotation="270" c_width="12.96" c_height="7.2" title="U2_RST" c_shape="RECT" pasteExpansion="0" solderExpansion="0.4"><polygon points="4288.6 3231.52 4288.6 3244.48 4281.4 3244.48 4281.4 3231.52" stroke-width="0" /><circle c_padhole="1" cx="4285" cy="3238" r="2" stroke-width="0" /></g><g c_partid="part_pad" c_etype="pinpart" c_origin="4355,3148" layerid="11" number="5V" net="U2_5V" plated ="Y" c_shapetype="group" id="gge63" locked="0" c_rotation="90" c_width="12.96" c_height="7.2" title="U2_5V" c_shape="RECT" pasteExpansion="0" solderExpansion="0.4"><polygon points="4351.4 3154.48 4351.4 3141.52 4358.6 3141.52 4358.6 3154.48" stroke-width="0" /><circle c_padhole="1" cx="4355" cy="3148" r="2" stroke-width="0" /></g><g c_partid="part_pad" c_etype="pinpart" c_origin="4345,3148" layerid="11" number="GND" net="U2_GND" plated ="Y" c_shapetype="group" id="gge68" locked="0" c_rotation="90" c_width="12.96" c_height="7.2" title="U2_GND" c_shape="RECT" pasteExpansion="0" solderExpansion="0.4"><polygon points="4341.4 3154.48 4341.4 3141.52 4348.6 3141.52 4348.6 3154.48" stroke-width="0" /><circle c_padhole="1" cx="4345" cy="3148" r="2" stroke-width="0" /></g><g c_partid="part_pad" c_etype="pinpart" c_origin="4335,3148" layerid="11" number="D4" net="U2_D4" plated ="Y" c_shapetype="group" id="gge73" locked="0" c_rotation="90" c_width="12.96" c_height="7.2" title="U2_D4" c_shape="RECT" pasteExpansion="0" solderExpansion="0.4"><polygon points="4331.4 3154.48 4331.4 3141.52 4338.6 3141.52 4338.6 3154.48" stroke-width="0" /><circle c_padhole="1" cx="4335" cy="3148" r="2" stroke-width="0" /></g><g c_partid="part_pad" c_etype="pinpart" c_origin="4325,3148" layerid="11" number="D3" net="U2_D3" plated ="Y" c_shapetype="group" id="gge78" locked="0" c_rotation="90" c_width="12.96" c_height="7.2" title="U2_D3" c_shape="RECT" pasteExpansion="0" solderExpansion="0.4"><polygon points="4321.4 3154.48 4321.4 3141.52 4328.6 3141.52 4328.6 3154.48" stroke-width="0" /><circle c_padhole="1" cx="4325" cy="3148" r="2" stroke-width="0" /></g><g c_partid="part_pad" c_etype="pinpart" c_origin="4315,3148" layerid="11" number="D2" net="U2_D2" plated ="Y" c_shapetype="group" id="gge83" locked="0" c_rotation="90" c_width="12.96" c_height="7.2" title="U2_D2" c_shape="RECT" pasteExpansion="0" solderExpansion="0.4"><polygon points="4311.4 3154.48 4311.4 3141.52 4318.6 3141.52 4318.6 3154.48" stroke-width="0" /><circle c_padhole="1" cx="4315" cy="3148" r="2" stroke-width="0" /></g><g c_partid="part_pad" c_etype="pinpart" c_origin="4305,3148" layerid="11" number="D1" net="U2_D1" plated ="Y" c_shapetype="group" id="gge88" locked="0" c_rotation="90" c_width="12.96" c_height="7.2" title="U2_D1" c_shape="RECT" pasteExpansion="0" solderExpansion="0.4"><polygon points="4301.4 3154.48 4301.4 3141.52 4308.6 3141.52 4308.6 3154.48" stroke-width="0" /><circle c_padhole="1" cx="4305" cy="3148" r="2" stroke-width="0" /></g><g c_partid="part_pad" c_etype="pinpart" c_origin="4295,3148" layerid="11" number="RX" net="U2_RX" plated ="Y" c_shapetype="group" id="gge93" locked="0" c_rotation="90" c_width="12.96" c_height="7.2" title="U2_RX" c_shape="RECT" pasteExpansion="0" solderExpansion="0.4"><polygon points="4291.4 3154.48 4291.4 3141.52 4298.6 3141.52 4298.6 3154.48" stroke-width="0" /><circle c_padhole="1" cx="4295" cy="3148" r="2" stroke-width="0" /></g><g c_partid="part_pad" c_etype="pinpart" c_origin="4285,3148" layerid="11" number="TX" net="U2_TX" plated ="Y" c_shapetype="group" id="gge98" locked="0" c_rotation="90" c_width="12.96" c_height="7.2" title="U2_TX" c_shape="RECT" pasteExpansion="0" solderExpansion="0.4"><polygon points="4281.4 3154.48 4281.4 3141.52 4288.6 3141.52 4288.6 3154.48" stroke-width="0" /><circle c_padhole="1" cx="4285" cy="3148" r="2" stroke-width="0" /></g><g c_partid="part_pad" c_etype="pinpart" c_origin="4355,3238" layerid="11" number="3V3" net="U2_3V3" plated ="Y" c_shapetype="group" id="gge103" locked="0" c_rotation="270" c_width="12.96" c_height="7.2" title="U2_3V3" c_shape="RECT" pasteExpansion="0" solderExpansion="0.4"><polygon points="4358.6 3231.52 4358.6 3244.48 4351.4 3244.48 4351.4 3231.52" stroke-width="0" /><circle c_padhole="1" cx="4355" cy="3238" r="2" stroke-width="0" /></g><g c_partid="part_pad" c_etype="pinpart" c_origin="4345,3238" layerid="11" number="D8" net="U2_D8" plated ="Y" c_shapetype="group" id="gge108" locked="0" c_rotation="270" c_width="12.96" c_height="7.2" title="U2_D8" c_shape="RECT" pasteExpansion="0" solderExpansion="0.4"><polygon points="4348.6 3231.52 4348.6 3244.48 4341.4 3244.48 4341.4 3231.52" stroke-width="0" /><circle c_padhole="1" cx="4345" cy="3238" r="2" stroke-width="0" /></g><g c_partid="part_pad" c_etype="pinpart" c_origin="4335,3238" layerid="11" number="D7" net="U2_D7" plated ="Y" c_shapetype="group" id="gge113" locked="0" c_rotation="270" c_width="12.96" c_height="7.2" title="U2_D7" c_shape="RECT" pasteExpansion="0" solderExpansion="0.4"><polygon points="4338.6 3231.52 4338.6 3244.48 4331.4 3244.48 4331.4 3231.52" stroke-width="0" /><circle c_padhole="1" cx="4335" cy="3238" r="2" stroke-width="0" /></g><g c_partid="part_pad" c_etype="pinpart" c_origin="4325,3238" layerid="11" number="D6" net="U2_D6" plated ="Y" c_shapetype="group" id="gge118" locked="0" c_rotation="270" c_width="12.96" c_height="7.2" title="U2_D6" c_shape="RECT" pasteExpansion="0" solderExpansion="0.4"><polygon points="4328.6 3231.52 4328.6 3244.48 4321.4 3244.48 4321.4 3231.52" stroke-width="0" /><circle c_padhole="1" cx="4325" cy="3238" r="2" stroke-width="0" /></g><g c_partid="part_pad" c_etype="pinpart" c_origin="4315,3238" layerid="11" number="D5" net="U2_D5" plated ="Y" c_shapetype="group" id="gge123" locked="0" c_rotation="270" c_width="12.96" c_height="7.2" title="U2_D5" c_shape="RECT" pasteExpansion="0" solderExpansion="0.4"><polygon points="4318.6 3231.52 4318.6 3244.48 4311.4 3244.48 4311.4 3231.52" stroke-width="0" /><circle c_padhole="1" cx="4315" cy="3238" r="2" stroke-width="0" /></g><g c_partid="part_pad" c_etype="pinpart" c_origin="4305,3238" layerid="11" number="D0" net="U2_D0" plated ="Y" c_shapetype="group" id="gge128" locked="0" c_rotation="270" c_width="12.96" c_height="7.2" title="U2_D0" c_shape="RECT" pasteExpansion="0" solderExpansion="0.4"><polygon points="4308.6 3231.52 4308.6 3244.48 4301.4 3244.48 4301.4 3231.52" stroke-width="0" /><circle c_padhole="1" cx="4305" cy="3238" r="2" stroke-width="0" /></g><g c_partid="part_pad" c_etype="pinpart" c_origin="4295,3238" layerid="11" number="A0" net="U2_A0" plated ="Y" c_shapetype="group" id="gge133" locked="0" c_rotation="270" c_width="12.96" c_height="7.2" title="U2_A0" c_shape="RECT" pasteExpansion="0" solderExpansion="0.4"><polygon points="4298.6 3231.52 4298.6 3244.48 4291.4 3244.48 4291.4 3231.52" stroke-width="0" /><circle c_padhole="1" cx="4295" cy="3238" r="2" stroke-width="0" /></g></g><g c_partid="part_pcbtext" c_origin="4375.73,3088.33" c_rotation="0" c_mirror="1" id="gge538" layerid="4" c_shapetype="group" ><path c_fontSize="3.937" c_fontFamily="" c_text="Telemetry Display Prototype v1.1 (C) Dulhan Jayalath 2019" d="M4374.4817 3086.1807L4374.4817 3089.9388M4375.7344 3086.1807L4373.229 3086.1807M4372.0479 3088.5072L4369.9005 3088.5072 4369.9005 3088.1492 4370.0794 3087.7913 4370.2584 3087.6124 4370.6163 3087.4334 4371.1532 3087.4334 4371.5111 3087.6124 4371.869 3087.9703 4372.0479 3088.5072 4372.0479 3088.8651 4371.869 3089.4019 4371.5111 3089.7598 4371.1532 3089.9388 4370.6163 3089.9388 4370.2584 3089.7598 4369.9005 3089.4019M4368.7194 3086.1807L4368.7194 3089.9388M4367.5383 3088.5072L4365.3908 3088.5072 4365.3908 3088.1492 4365.5698 3087.7913 4365.7487 3087.6124 4366.1066 3087.4334 4366.6435 3087.4334 4367.0014 3087.6124 4367.3593 3087.9703 4367.5383 3088.5072 4367.5383 3088.8651 4367.3593 3089.4019 4367.0014 3089.7598 4366.6435 3089.9388 4366.1066 3089.9388 4365.7487 3089.7598 4365.3908 3089.4019M4364.2097 3087.4334L4364.2097 3089.9388M4364.2097 3088.1492L4363.6728 3087.6124 4363.3149 3087.4334 4362.7781 3087.4334 4362.4202 3087.6124 4362.2412 3088.1492 4362.2412 3089.9388M4362.2412 3088.1492L4361.7043 3087.6124 4361.3464 3087.4334 4360.8096 3087.4334 4360.4517 3087.6124 4360.2727 3088.1492 4360.2727 3089.9388M4359.0916 3088.5072L4356.9441 3088.5072 4356.9441 3088.1492 4357.1231 3087.7913 4357.302 3087.6124 4357.66 3087.4334 4358.1968 3087.4334 4358.5547 3087.6124 4358.9126 3087.9703 4359.0916 3088.5072 4359.0916 3088.8651 4358.9126 3089.4019 4358.5547 3089.7598 4358.1968 3089.9388 4357.66 3089.9388 4357.302 3089.7598 4356.9441 3089.4019M4355.2262 3086.1807L4355.2262 3089.223 4355.0472 3089.7598 4354.6893 3089.9388 4354.3314 3089.9388M4355.763 3087.4334L4354.5103 3087.4334M4353.1503 3087.4334L4353.1503 3089.9388M4353.1503 3088.5072L4352.9713 3087.9703 4352.6134 3087.6124 4352.2555 3087.4334 4351.7187 3087.4334M4350.3586 3087.4334L4349.2849 3089.9388M4348.2111 3087.4334L4349.2849 3089.9388 4349.6428 3090.6546 4350.0007 3091.0125 4350.3586 3091.1915 4350.5375 3091.1915M4344.2741 3086.1807L4344.2741 3089.9388M4344.2741 3086.1807L4343.0214 3086.1807 4342.4846 3086.3597 4342.1267 3086.7176 4341.9477 3087.0755 4341.7688 3087.6124 4341.7688 3088.5072 4341.9477 3089.044 4342.1267 3089.4019 4342.4846 3089.7598 4343.0214 3089.9388 4344.2741 3089.9388M4340.5877 3086.1807L4340.4087 3086.3597 4340.2297 3086.1807 4340.4087 3086.0018 4340.5877 3086.1807M4340.4087 3087.4334L4340.4087 3089.9388M4337.0801 3087.9703L4337.2591 3087.6124 4337.796 3087.4334 4338.3328 3087.4334 4338.8697 3087.6124 4339.0486 3087.9703 4338.8697 3088.3282 4338.5118 3088.5072 4337.617 3088.6861 4337.2591 3088.8651 4337.0801 3089.223 4337.0801 3089.4019 4337.2591 3089.7598 4337.796 3089.9388 4338.3328 3089.9388 4338.8697 3089.7598 4339.0486 3089.4019M4335.899 3087.4334L4335.899 3091.1915M4335.899 3087.9703L4335.5411 3087.6124 4335.1832 3087.4334 4334.6464 3087.4334 4334.2884 3087.6124 4333.9305 3087.9703 4333.7516 3088.5072 4333.7516 3088.8651 4333.9305 3089.4019 4334.2884 3089.7598 4334.6464 3089.9388 4335.1832 3089.9388 4335.5411 3089.7598 4335.899 3089.4019M4332.5705 3086.1807L4332.5705 3089.9388M4329.2419 3087.4334L4329.2419 3089.9388M4329.2419 3087.9703L4329.5998 3087.6124 4329.9577 3087.4334 4330.4946 3087.4334 4330.8525 3087.6124 4331.2104 3087.9703 4331.3894 3088.5072 4331.3894 3088.8651 4331.2104 3089.4019 4330.8525 3089.7598 4330.4946 3089.9388 4329.9577 3089.9388 4329.5998 3089.7598 4329.2419 3089.4019M4327.8819 3087.4334L4326.8081 3089.9388M4325.7344 3087.4334L4326.8081 3089.9388 4327.166 3090.6546 4327.5239 3091.0125 4327.8819 3091.1915 4328.0608 3091.1915M4321.7974 3086.1807L4321.7974 3089.9388M4321.7974 3086.1807L4320.1868 3086.1807 4319.6499 3086.3597 4319.471 3086.5387 4319.292 3086.8966 4319.292 3087.4334 4319.471 3087.7913 4319.6499 3087.9703 4320.1868 3088.1492 4321.7974 3088.1492M4318.1109 3087.4334L4318.1109 3089.9388M4318.1109 3088.5072L4317.932 3087.9703 4317.5741 3087.6124 4317.2161 3087.4334 4316.6793 3087.4334M4314.6034 3087.4334L4314.9613 3087.6124 4315.3192 3087.9703 4315.4982 3088.5072 4315.4982 3088.8651 4315.3192 3089.4019 4314.9613 3089.7598 4314.6034 3089.9388 4314.0665 3089.9388 4313.7086 3089.7598 4313.3507 3089.4019 4313.1718 3088.8651 4313.1718 3088.5072 4313.3507 3087.9703 4313.7086 3087.6124 4314.0665 3087.4334 4314.6034 3087.4334M4311.4538 3086.1807L4311.4538 3089.223 4311.2748 3089.7598 4310.9169 3089.9388 4310.559 3089.9388M4311.9907 3087.4334L4310.738 3087.4334M4308.4831 3087.4334L4308.8411 3087.6124 4309.199 3087.9703 4309.3779 3088.5072 4309.3779 3088.8651 4309.199 3089.4019 4308.8411 3089.7598 4308.4831 3089.9388 4307.9463 3089.9388 4307.5884 3089.7598 4307.2305 3089.4019 4307.0515 3088.8651 4307.0515 3088.5072 4307.2305 3087.9703 4307.5884 3087.6124 4307.9463 3087.4334 4308.4831 3087.4334M4305.3335 3086.1807L4305.3335 3089.223 4305.1546 3089.7598 4304.7967 3089.9388 4304.4388 3089.9388M4305.8704 3087.4334L4304.6177 3087.4334M4303.0787 3087.4334L4302.005 3089.9388M4300.9313 3087.4334L4302.005 3089.9388 4302.3629 3090.6546 4302.7208 3091.0125 4303.0787 3091.1915 4303.2577 3091.1915M4299.7501 3087.4334L4299.7501 3091.1915M4299.7501 3087.9703L4299.3922 3087.6124 4299.0343 3087.4334 4298.4975 3087.4334 4298.1396 3087.6124 4297.7816 3087.9703 4297.6027 3088.5072 4297.6027 3088.8651 4297.7816 3089.4019 4298.1396 3089.7598 4298.4975 3089.9388 4299.0343 3089.9388 4299.3922 3089.7598 4299.7501 3089.4019M4296.4216 3088.5072L4294.2741 3088.5072 4294.2741 3088.1492 4294.4531 3087.7913 4294.632 3087.6124 4294.9899 3087.4334 4295.5268 3087.4334 4295.8847 3087.6124 4296.2426 3087.9703 4296.4216 3088.5072 4296.4216 3088.8651 4296.2426 3089.4019 4295.8847 3089.7598 4295.5268 3089.9388 4294.9899 3089.9388 4294.632 3089.7598 4294.2741 3089.4019M4290.3371 3087.4334L4289.2634 3089.9388M4288.1897 3087.4334L4289.2634 3089.9388M4287.0086 3086.8966L4286.6506 3086.7176 4286.1138 3086.1807 4286.1138 3089.9388M4284.7537 3089.044L4284.9327 3089.223 4284.7537 3089.4019 4284.5748 3089.223 4284.7537 3089.044M4283.3937 3086.8966L4283.0358 3086.7176 4282.4989 3086.1807 4282.4989 3089.9388M4277.3092 3085.4649L4277.6671 3085.8228 4278.025 3086.3597 4278.3829 3087.0755 4278.5619 3087.9703 4278.5619 3088.6861 4278.3829 3089.5809 4278.025 3090.2967 4277.6671 3090.8336 4277.3092 3091.1915M4273.4438 3087.0755L4273.6227 3086.7176 4273.9806 3086.3597 4274.3386 3086.1807 4275.0544 3086.1807 4275.4123 3086.3597 4275.7702 3086.7176 4275.9491 3087.0755 4276.1281 3087.6124 4276.1281 3088.5072 4275.9491 3089.044 4275.7702 3089.4019 4275.4123 3089.7598 4275.0544 3089.9388 4274.3386 3089.9388 4273.9806 3089.7598 4273.6227 3089.4019 4273.4438 3089.044M4272.2627 3085.4649L4271.9048 3085.8228 4271.5469 3086.3597 4271.1889 3087.0755 4271.01 3087.9703 4271.01 3088.6861 4271.1889 3089.5809 4271.5469 3090.2967 4271.9048 3090.8336 4272.2627 3091.1915M4267.073 3086.1807L4267.073 3089.9388M4267.073 3086.1807L4265.8203 3086.1807 4265.2834 3086.3597 4264.9255 3086.7176 4264.7466 3087.0755 4264.5676 3087.6124 4264.5676 3088.5072 4264.7466 3089.044 4264.9255 3089.4019 4265.2834 3089.7598 4265.8203 3089.9388 4267.073 3089.9388M4263.3865 3087.4334L4263.3865 3089.223 4263.2076 3089.7598 4262.8496 3089.9388 4262.3128 3089.9388 4261.9549 3089.7598 4261.418 3089.223M4261.418 3087.4334L4261.418 3089.9388M4260.2369 3086.1807L4260.2369 3089.9388M4259.0558 3086.1807L4259.0558 3089.9388M4259.0558 3088.1492L4258.5189 3087.6124 4258.161 3087.4334 4257.6242 3087.4334 4257.2663 3087.6124 4257.0873 3088.1492 4257.0873 3089.9388M4253.7587 3087.4334L4253.7587 3089.9388M4253.7587 3087.9703L4254.1166 3087.6124 4254.4746 3087.4334 4255.0114 3087.4334 4255.3693 3087.6124 4255.7272 3087.9703 4255.9062 3088.5072 4255.9062 3088.8651 4255.7272 3089.4019 4255.3693 3089.7598 4255.0114 3089.9388 4254.4746 3089.9388 4254.1166 3089.7598 4253.7587 3089.4019M4252.5776 3087.4334L4252.5776 3089.9388M4252.5776 3088.1492L4252.0408 3087.6124 4251.6829 3087.4334 4251.146 3087.4334 4250.7881 3087.6124 4250.6091 3088.1492 4250.6091 3089.9388M4244.8826 3086.1807L4244.8826 3089.044 4245.0615 3089.5809 4245.2405 3089.7598 4245.5984 3089.9388 4245.9563 3089.9388 4246.3142 3089.7598 4246.4932 3089.5809 4246.6721 3089.044 4246.6721 3088.6861M4241.554 3087.4334L4241.554 3089.9388M4241.554 3087.9703L4241.9119 3087.6124 4242.2698 3087.4334 4242.8067 3087.4334 4243.1646 3087.6124 4243.5225 3087.9703 4243.7015 3088.5072 4243.7015 3088.8651 4243.5225 3089.4019 4243.1646 3089.7598 4242.8067 3089.9388 4242.2698 3089.9388 4241.9119 3089.7598 4241.554 3089.4019M4240.194 3087.4334L4239.1202 3089.9388M4238.0465 3087.4334L4239.1202 3089.9388 4239.4781 3090.6546 4239.836 3091.0125 4240.194 3091.1915 4240.3729 3091.1915M4234.7179 3087.4334L4234.7179 3089.9388M4234.7179 3087.9703L4235.0758 3087.6124 4235.4338 3087.4334 4235.9706 3087.4334 4236.3285 3087.6124 4236.6864 3087.9703 4236.8654 3088.5072 4236.8654 3088.8651 4236.6864 3089.4019 4236.3285 3089.7598 4235.9706 3089.9388 4235.4338 3089.9388 4235.0758 3089.7598 4234.7179 3089.4019M4233.5368 3086.1807L4233.5368 3089.9388M4230.2083 3087.4334L4230.2083 3089.9388M4230.2083 3087.9703L4230.5662 3087.6124 4230.9241 3087.4334 4231.461 3087.4334 4231.8189 3087.6124 4232.1768 3087.9703 4232.3557 3088.5072 4232.3557 3088.8651 4232.1768 3089.4019 4231.8189 3089.7598 4231.461 3089.9388 4230.9241 3089.9388 4230.5662 3089.7598 4230.2083 3089.4019M4228.4903 3086.1807L4228.4903 3089.223 4228.3114 3089.7598 4227.9534 3089.9388 4227.5955 3089.9388M4229.0272 3087.4334L4227.7745 3087.4334M4226.4144 3086.1807L4226.4144 3089.9388M4226.4144 3088.1492L4225.8776 3087.6124 4225.5197 3087.4334 4224.9828 3087.4334 4224.6249 3087.6124 4224.4459 3088.1492 4224.4459 3089.9388M4220.33 3087.0755L4220.33 3086.8966 4220.151 3086.5387 4219.9721 3086.3597 4219.6141 3086.1807 4218.8983 3086.1807 4218.5404 3086.3597 4218.3615 3086.5387 4218.1825 3086.8966 4218.1825 3087.2545 4218.3615 3087.6124 4218.7194 3088.1492 4220.5089 3089.9388 4218.0035 3089.9388M4215.7487 3086.1807L4216.2856 3086.3597 4216.6435 3086.8966 4216.8224 3087.7913 4216.8224 3088.3282 4216.6435 3089.223 4216.2856 3089.7598 4215.7487 3089.9388 4215.3908 3089.9388 4214.8539 3089.7598 4214.496 3089.223 4214.3171 3088.3282 4214.3171 3087.7913 4214.496 3086.8966 4214.8539 3086.3597 4215.3908 3086.1807 4215.7487 3086.1807M4213.136 3086.8966L4212.7781 3086.7176 4212.2412 3086.1807 4212.2412 3089.9388M4208.7337 3087.4334L4208.9126 3087.9703 4209.2705 3088.3282 4209.8074 3088.5072 4209.9864 3088.5072 4210.5232 3088.3282 4210.8811 3087.9703 4211.0601 3087.4334 4211.0601 3087.2545 4210.8811 3086.7176 4210.5232 3086.3597 4209.9864 3086.1807 4209.8074 3086.1807 4209.2705 3086.3597 4208.9126 3086.7176 4208.7337 3087.4334 4208.7337 3088.3282 4208.9126 3089.223 4209.2705 3089.7598 4209.8074 3089.9388 4210.1653 3089.9388 4210.7022 3089.7598 4210.8811 3089.4019" fill="none"  stroke-width="0.3937"  /></g><g c_partid="part_pcbtext" c_origin="4166.5,3271.5" c_rotation="0" c_mirror="1" id="gge361" layerid="4" c_shapetype="group" ><path c_fontSize="8" c_fontFamily="" c_text="GND" d="M4161.0455 3268.9545L4161.4091 3268.2273 4162.1364 3267.5 4162.8636 3267.1364 4164.3182 3267.1364 4165.0455 3267.5 4165.7727 3268.2273 4166.1364 3268.9545 4166.5 3270.0455 4166.5 3271.8636 4166.1364 3272.9545 4165.7727 3273.6818 4165.0455 3274.4091 4164.3182 3274.7727 4162.8636 3274.7727 4162.1364 3274.4091 4161.4091 3273.6818 4161.0455 3272.9545 4161.0455 3271.8636M4162.8636 3271.8636L4161.0455 3271.8636M4158.6455 3267.1364L4158.6455 3274.7727M4158.6455 3267.1364L4153.5545 3274.7727M4153.5545 3267.1364L4153.5545 3274.7727M4151.1545 3267.1364L4151.1545 3274.7727M4151.1545 3267.1364L4148.6091 3267.1364 4147.5182 3267.5 4146.7909 3268.2273 4146.4273 3268.9545 4146.0636 3270.0455 4146.0636 3271.8636 4146.4273 3272.9545 4146.7909 3273.6818 4147.5182 3274.4091 4148.6091 3274.7727 4151.1545 3274.7727" fill="none"  stroke-width="0.8"  /></g><g c_partid="part_pcbtext" c_origin="4167,3251.5" c_rotation="0" c_mirror="1" id="gge365" layerid="4" c_shapetype="group" ><path c_fontSize="8" c_fontFamily="" c_text="+5V" d="M4163.7273 3248.2273L4163.7273 3254.7727M4167 3251.5L4160.4545 3251.5M4153.6909 3247.1364L4157.3273 3247.1364 4157.6909 3250.4091 4157.3273 3250.0455 4156.2364 3249.6818 4155.1455 3249.6818 4154.0545 3250.0455 4153.3273 3250.7727 4152.9636 3251.8636 4152.9636 3252.5909 4153.3273 3253.6818 4154.0545 3254.4091 4155.1455 3254.7727 4156.2364 3254.7727 4157.3273 3254.4091 4157.6909 3254.0455 4158.0545 3253.3182M4150.5636 3247.1364L4147.6545 3254.7727M4144.7455 3247.1364L4147.6545 3254.7727" fill="none"  stroke-width="0.8"  /></g><polyline points="4355 3148 4355 3138.85" stroke-width="1.378" c_shapetype="line" stroke-linecap="round" fill="none" layerid="1" net="U2_5V" id="gge309" /><polyline points="4182.5 3110 4326.15 3110 4355 3138.85" stroke-width="1.378" c_shapetype="line" stroke-linecap="round" fill="none" layerid="1" net="U2_5V" id="gge310" /><polyline points="4335 3148 4335 3157.15" stroke-width="1.378" c_shapetype="line" stroke-linecap="round" fill="none" layerid="1" net="U2_D4" id="gge315" /><polyline points="4059 3165.01 4327.14 3165.01 4335 3157.15" stroke-width="1.378" c_shapetype="line" stroke-linecap="round" fill="none" layerid="1" net="U2_D4" id="gge316" /><polyline points="4228.42 3225 4059 3225" stroke-width="1.378" c_shapetype="line" stroke-linecap="round" fill="none" layerid="1" net="U2_D2" id="gge318" /><polyline points="4234.69 3262.63 4066.63 3262.63 4059 3255" stroke-width="1.378" c_shapetype="line" stroke-linecap="round" fill="none" layerid="1" net="U2_D1" id="gge321" /><polyline points="4355 3238 4355 3228.85" stroke-width="1.378" c_shapetype="line" stroke-linecap="round" fill="none" layerid="1" net="U2_3V3" id="gge324" /><polyline points="4059 3195 4321.15 3195 4355 3228.85" stroke-width="1.378" c_shapetype="line" stroke-linecap="round" fill="none" layerid="1" net="U2_3V3" id="gge325" /><polyline points="4345 3238 4345 3247.15" stroke-width="1.378" c_shapetype="line" stroke-linecap="round" fill="none" layerid="1" net="U2_D8" id="gge328" /><polyline points="4345 3247.15 4340.38 3251.76 4209.87 3251.76 4202.37 3259.27 4128.95 3259.27 4112.95 3243.27" stroke-width="1.378" c_shapetype="line" stroke-linecap="round" fill="none" layerid="1" net="U2_D8" id="gge330" /><polyline points="4335 3238 4335 3247.15" stroke-width="1.378" c_shapetype="line" stroke-linecap="round" fill="none" layerid="1" net="U2_D7" id="gge332" /><polyline points="4059 3235 4176.44 3235 4188.59 3247.15 4335 3247.15" stroke-width="1.378" c_shapetype="line" stroke-linecap="round" fill="none" layerid="1" net="U2_D7" id="gge333" /><polyline points="4325 3238 4325 3228.85" stroke-width="1.378" c_shapetype="line" stroke-linecap="round" fill="none" layerid="1" net="U2_D6" id="gge335" /><polyline points="4059 3205 4301.15 3205 4325 3228.85" stroke-width="1.378" c_shapetype="line" stroke-linecap="round" fill="none" layerid="1" net="U2_D6" id="gge336" /><polyline points="4315 3228.85 4301.15 3215 4059 3215" stroke-width="1.378" c_shapetype="line" stroke-linecap="round" fill="none" layerid="1" net="U2_D5" id="gge339" /><polyline points="4315 3238 4315 3228.85" stroke-width="1.378" c_shapetype="line" stroke-linecap="round" fill="none" layerid="1" net="U2_D5" id="gge340" /><g c_partid="part_pcbtext" c_origin="4209,3085.86" c_rotation="0" c_mirror="" id="gge548" layerid="3" c_shapetype="group" ><path c_fontSize="3.937" c_fontFamily="" c_text="Telemetry Display Prototype v1.1 (C) Dulhan Jayalath 2019" d="M 4210.25 3083.71 L 4210.25 3087.47 M 4209 3083.71 L 4211.51 3083.71 M 4212.69 3086.04 L 4214.83 3086.04 L 4214.83 3085.68 L 4214.65 3085.32 L 4214.48 3085.14 L 4214.12 3084.96 L 4213.58 3084.96 L 4213.22 3085.14 L 4212.87 3085.5 L 4212.69 3086.04 L 4212.69 3086.4 L 4212.87 3086.93 L 4213.22 3087.29 L 4213.58 3087.47 L 4214.12 3087.47 L 4214.48 3087.29 L 4214.83 3086.93 M 4216.02 3083.71 L 4216.02 3087.47 M 4217.2 3086.04 L 4219.34 3086.04 L 4219.34 3085.68 L 4219.16 3085.32 L 4218.99 3085.14 L 4218.63 3084.96 L 4218.09 3084.96 L 4217.73 3085.14 L 4217.38 3085.5 L 4217.2 3086.04 L 4217.2 3086.4 L 4217.38 3086.93 L 4217.73 3087.29 L 4218.09 3087.47 L 4218.63 3087.47 L 4218.99 3087.29 L 4219.34 3086.93 M 4220.52 3084.96 L 4220.52 3087.47 M 4220.52 3085.68 L 4221.06 3085.14 L 4221.42 3084.96 L 4221.96 3084.96 L 4222.31 3085.14 L 4222.49 3085.68 L 4222.49 3087.47 M 4222.49 3085.68 L 4223.03 3085.14 L 4223.39 3084.96 L 4223.92 3084.96 L 4224.28 3085.14 L 4224.46 3085.68 L 4224.46 3087.47 M 4225.64 3086.04 L 4227.79 3086.04 L 4227.79 3085.68 L 4227.61 3085.32 L 4227.43 3085.14 L 4227.07 3084.96 L 4226.54 3084.96 L 4226.18 3085.14 L 4225.82 3085.5 L 4225.64 3086.04 L 4225.64 3086.4 L 4225.82 3086.93 L 4226.18 3087.29 L 4226.54 3087.47 L 4227.07 3087.47 L 4227.43 3087.29 L 4227.79 3086.93 M 4229.51 3083.71 L 4229.51 3086.75 L 4229.69 3087.29 L 4230.05 3087.47 L 4230.4 3087.47 M 4228.97 3084.96 L 4230.22 3084.96 M 4231.58 3084.96 L 4231.58 3087.47 M 4231.58 3086.04 L 4231.76 3085.5 L 4232.12 3085.14 L 4232.48 3084.96 L 4233.02 3084.96 M 4234.38 3084.96 L 4235.45 3087.47 M 4236.52 3084.96 L 4235.45 3087.47 L 4235.09 3088.19 L 4234.73 3088.54 L 4234.38 3088.72 L 4234.2 3088.72 M 4240.46 3083.71 L 4240.46 3087.47 M 4240.46 3083.71 L 4241.71 3083.71 L 4242.25 3083.89 L 4242.61 3084.25 L 4242.79 3084.61 L 4242.97 3085.14 L 4242.97 3086.04 L 4242.79 3086.58 L 4242.61 3086.93 L 4242.25 3087.29 L 4241.71 3087.47 L 4240.46 3087.47 M 4244.15 3083.71 L 4244.33 3083.89 L 4244.5 3083.71 L 4244.33 3083.53 L 4244.15 3083.71 M 4244.33 3084.96 L 4244.33 3087.47 M 4247.65 3085.5 L 4247.48 3085.14 L 4246.94 3084.96 L 4246.4 3084.96 L 4245.86 3085.14 L 4245.69 3085.5 L 4245.86 3085.86 L 4246.22 3086.04 L 4247.12 3086.22 L 4247.48 3086.4 L 4247.65 3086.75 L 4247.65 3086.93 L 4247.48 3087.29 L 4246.94 3087.47 L 4246.4 3087.47 L 4245.86 3087.29 L 4245.69 3086.93 M 4248.84 3084.96 L 4248.84 3088.72 M 4248.84 3085.5 L 4249.19 3085.14 L 4249.55 3084.96 L 4250.09 3084.96 L 4250.45 3085.14 L 4250.8 3085.5 L 4250.98 3086.04 L 4250.98 3086.4 L 4250.8 3086.93 L 4250.45 3087.29 L 4250.09 3087.47 L 4249.55 3087.47 L 4249.19 3087.29 L 4248.84 3086.93 M 4252.16 3083.71 L 4252.16 3087.47 M 4255.49 3084.96 L 4255.49 3087.47 M 4255.49 3085.5 L 4255.13 3085.14 L 4254.78 3084.96 L 4254.24 3084.96 L 4253.88 3085.14 L 4253.52 3085.5 L 4253.35 3086.04 L 4253.35 3086.4 L 4253.52 3086.93 L 4253.88 3087.29 L 4254.24 3087.47 L 4254.78 3087.47 L 4255.13 3087.29 L 4255.49 3086.93 M 4256.85 3084.96 L 4257.93 3087.47 M 4259 3084.96 L 4257.93 3087.47 L 4257.57 3088.19 L 4257.21 3088.54 L 4256.85 3088.72 L 4256.67 3088.72 M 4262.94 3083.71 L 4262.94 3087.47 M 4262.94 3083.71 L 4264.55 3083.71 L 4265.08 3083.89 L 4265.26 3084.07 L 4265.44 3084.43 L 4265.44 3084.96 L 4265.26 3085.32 L 4265.08 3085.5 L 4264.55 3085.68 L 4262.94 3085.68 M 4266.62 3084.96 L 4266.62 3087.47 M 4266.62 3086.04 L 4266.8 3085.5 L 4267.16 3085.14 L 4267.52 3084.96 L 4268.06 3084.96 M 4270.13 3084.96 L 4269.77 3085.14 L 4269.42 3085.5 L 4269.24 3086.04 L 4269.24 3086.4 L 4269.42 3086.93 L 4269.77 3087.29 L 4270.13 3087.47 L 4270.67 3087.47 L 4271.03 3087.29 L 4271.38 3086.93 L 4271.56 3086.4 L 4271.56 3086.04 L 4271.38 3085.5 L 4271.03 3085.14 L 4270.67 3084.96 L 4270.13 3084.96 M 4273.28 3083.71 L 4273.28 3086.75 L 4273.46 3087.29 L 4273.82 3087.47 L 4274.18 3087.47 M 4272.74 3084.96 L 4274 3084.96 M 4276.25 3084.96 L 4275.89 3085.14 L 4275.54 3085.5 L 4275.36 3086.04 L 4275.36 3086.4 L 4275.54 3086.93 L 4275.89 3087.29 L 4276.25 3087.47 L 4276.79 3087.47 L 4277.15 3087.29 L 4277.5 3086.93 L 4277.68 3086.4 L 4277.68 3086.04 L 4277.5 3085.5 L 4277.15 3085.14 L 4276.79 3084.96 L 4276.25 3084.96 M 4279.4 3083.71 L 4279.4 3086.75 L 4279.58 3087.29 L 4279.94 3087.47 L 4280.3 3087.47 M 4278.86 3084.96 L 4280.12 3084.96 M 4281.66 3084.96 L 4282.73 3087.47 M 4283.8 3084.96 L 4282.73 3087.47 L 4282.37 3088.19 L 4282.01 3088.54 L 4281.66 3088.72 L 4281.48 3088.72 M 4284.98 3084.96 L 4284.98 3088.72 M 4284.98 3085.5 L 4285.34 3085.14 L 4285.7 3084.96 L 4286.24 3084.96 L 4286.59 3085.14 L 4286.95 3085.5 L 4287.13 3086.04 L 4287.13 3086.4 L 4286.95 3086.93 L 4286.59 3087.29 L 4286.24 3087.47 L 4285.7 3087.47 L 4285.34 3087.29 L 4284.98 3086.93 M 4288.31 3086.04 L 4290.46 3086.04 L 4290.46 3085.68 L 4290.28 3085.32 L 4290.1 3085.14 L 4289.74 3084.96 L 4289.21 3084.96 L 4288.85 3085.14 L 4288.49 3085.5 L 4288.31 3086.04 L 4288.31 3086.4 L 4288.49 3086.93 L 4288.85 3087.29 L 4289.21 3087.47 L 4289.74 3087.47 L 4290.1 3087.29 L 4290.46 3086.93 M 4294.4 3084.96 L 4295.47 3087.47 M 4296.54 3084.96 L 4295.47 3087.47 M 4297.73 3084.43 L 4298.08 3084.25 L 4298.62 3083.71 L 4298.62 3087.47 M 4299.98 3086.58 L 4299.8 3086.75 L 4299.98 3086.93 L 4300.16 3086.75 L 4299.98 3086.58 M 4301.34 3084.43 L 4301.7 3084.25 L 4302.24 3083.71 L 4302.24 3087.47 M 4307.43 3083 L 4307.07 3083.35 L 4306.71 3083.89 L 4306.35 3084.61 L 4306.17 3085.5 L 4306.17 3086.22 L 4306.35 3087.11 L 4306.71 3087.83 L 4307.07 3088.36 L 4307.43 3088.72 M 4311.29 3084.61 L 4311.11 3084.25 L 4310.75 3083.89 L 4310.4 3083.71 L 4309.68 3083.71 L 4309.32 3083.89 L 4308.96 3084.25 L 4308.79 3084.61 L 4308.61 3085.14 L 4308.61 3086.04 L 4308.79 3086.58 L 4308.96 3086.93 L 4309.32 3087.29 L 4309.68 3087.47 L 4310.4 3087.47 L 4310.75 3087.29 L 4311.11 3086.93 L 4311.29 3086.58 M 4312.47 3083 L 4312.83 3083.35 L 4313.19 3083.89 L 4313.55 3084.61 L 4313.72 3085.5 L 4313.72 3086.22 L 4313.55 3087.11 L 4313.19 3087.83 L 4312.83 3088.36 L 4312.47 3088.72 M 4317.66 3083.71 L 4317.66 3087.47 M 4317.66 3083.71 L 4318.91 3083.71 L 4319.45 3083.89 L 4319.81 3084.25 L 4319.99 3084.61 L 4320.17 3085.14 L 4320.17 3086.04 L 4319.99 3086.58 L 4319.81 3086.93 L 4319.45 3087.29 L 4318.91 3087.47 L 4317.66 3087.47 M 4321.35 3084.96 L 4321.35 3086.75 L 4321.53 3087.29 L 4321.88 3087.47 L 4322.42 3087.47 L 4322.78 3087.29 L 4323.32 3086.75 M 4323.32 3084.96 L 4323.32 3087.47 M 4324.5 3083.71 L 4324.5 3087.47 M 4325.68 3083.71 L 4325.68 3087.47 M 4325.68 3085.68 L 4326.22 3085.14 L 4326.57 3084.96 L 4327.11 3084.96 L 4327.47 3085.14 L 4327.65 3085.68 L 4327.65 3087.47 M 4330.98 3084.96 L 4330.98 3087.47 M 4330.98 3085.5 L 4330.62 3085.14 L 4330.26 3084.96 L 4329.72 3084.96 L 4329.37 3085.14 L 4329.01 3085.5 L 4328.83 3086.04 L 4328.83 3086.4 L 4329.01 3086.93 L 4329.37 3087.29 L 4329.72 3087.47 L 4330.26 3087.47 L 4330.62 3087.29 L 4330.98 3086.93 M 4332.16 3084.96 L 4332.16 3087.47 M 4332.16 3085.68 L 4332.69 3085.14 L 4333.05 3084.96 L 4333.59 3084.96 L 4333.95 3085.14 L 4334.13 3085.68 L 4334.13 3087.47 M 4339.85 3083.71 L 4339.85 3086.58 L 4339.67 3087.11 L 4339.49 3087.29 L 4339.14 3087.47 L 4338.78 3087.47 L 4338.42 3087.29 L 4338.24 3087.11 L 4338.06 3086.58 L 4338.06 3086.22 M 4343.18 3084.96 L 4343.18 3087.47 M 4343.18 3085.5 L 4342.82 3085.14 L 4342.46 3084.96 L 4341.93 3084.96 L 4341.57 3085.14 L 4341.21 3085.5 L 4341.03 3086.04 L 4341.03 3086.4 L 4341.21 3086.93 L 4341.57 3087.29 L 4341.93 3087.47 L 4342.46 3087.47 L 4342.82 3087.29 L 4343.18 3086.93 M 4344.54 3084.96 L 4345.61 3087.47 M 4346.69 3084.96 L 4345.61 3087.47 L 4345.26 3088.19 L 4344.9 3088.54 L 4344.54 3088.72 L 4344.36 3088.72 M 4350.02 3084.96 L 4350.02 3087.47 M 4350.02 3085.5 L 4349.66 3085.14 L 4349.3 3084.96 L 4348.76 3084.96 L 4348.41 3085.14 L 4348.05 3085.5 L 4347.87 3086.04 L 4347.87 3086.4 L 4348.05 3086.93 L 4348.41 3087.29 L 4348.76 3087.47 L 4349.3 3087.47 L 4349.66 3087.29 L 4350.02 3086.93 M 4351.2 3083.71 L 4351.2 3087.47 M 4354.53 3084.96 L 4354.53 3087.47 M 4354.53 3085.5 L 4354.17 3085.14 L 4353.81 3084.96 L 4353.27 3084.96 L 4352.92 3085.14 L 4352.56 3085.5 L 4352.38 3086.04 L 4352.38 3086.4 L 4352.56 3086.93 L 4352.92 3087.29 L 4353.27 3087.47 L 4353.81 3087.47 L 4354.17 3087.29 L 4354.53 3086.93 M 4356.24 3083.71 L 4356.24 3086.75 L 4356.42 3087.29 L 4356.78 3087.47 L 4357.14 3087.47 M 4355.71 3084.96 L 4356.96 3084.96 M 4358.32 3083.71 L 4358.32 3087.47 M 4358.32 3085.68 L 4358.86 3085.14 L 4359.21 3084.96 L 4359.75 3084.96 L 4360.11 3085.14 L 4360.29 3085.68 L 4360.29 3087.47 M 4364.4 3084.61 L 4364.4 3084.43 L 4364.58 3084.07 L 4364.76 3083.89 L 4365.12 3083.71 L 4365.84 3083.71 L 4366.19 3083.89 L 4366.37 3084.07 L 4366.55 3084.43 L 4366.55 3084.79 L 4366.37 3085.14 L 4366.02 3085.68 L 4364.23 3087.47 L 4366.73 3087.47 M 4368.99 3083.71 L 4368.45 3083.89 L 4368.09 3084.43 L 4367.91 3085.32 L 4367.91 3085.86 L 4368.09 3086.75 L 4368.45 3087.29 L 4368.99 3087.47 L 4369.34 3087.47 L 4369.88 3087.29 L 4370.24 3086.75 L 4370.42 3085.86 L 4370.42 3085.32 L 4370.24 3084.43 L 4369.88 3083.89 L 4369.34 3083.71 L 4368.99 3083.71 M 4371.6 3084.43 L 4371.96 3084.25 L 4372.49 3083.71 L 4372.49 3087.47 M 4376 3084.96 L 4375.82 3085.5 L 4375.46 3085.86 L 4374.93 3086.04 L 4374.75 3086.04 L 4374.21 3085.86 L 4373.85 3085.5 L 4373.67 3084.96 L 4373.67 3084.79 L 4373.85 3084.25 L 4374.21 3083.89 L 4374.75 3083.71 L 4374.93 3083.71 L 4375.46 3083.89 L 4375.82 3084.25 L 4376 3084.96 L 4376 3085.86 L 4375.82 3086.75 L 4375.46 3087.29 L 4374.93 3087.47 L 4374.57 3087.47 L 4374.03 3087.29 L 4373.85 3086.93" fill="none"  stroke-width="0.3937"  /></g><g c_partid="part_pcbtext" c_origin="4083.5,3085.96" c_rotation="0" c_mirror="" id="gge410" layerid="3" c_shapetype="group" ><path c_fontSize="4.5" c_fontFamily="" c_text="TFT" d="M 4084.93 3083.5009 L 4084.93 3087.8009 M 4083.5 3083.5009 L 4086.36 3083.5009 M 4087.71 3083.5009 L 4087.71 3087.8009 M 4087.71 3083.5009 L 4090.37 3083.5009 M 4087.71 3085.5509 L 4089.35 3085.5509 M 4093.15 3083.5009 L 4093.15 3087.8009 M 4091.72 3083.5009 L 4094.59 3083.5009" fill="none"  stroke-width="0.6"  /></g><polyline points="4389.731 3288.439 4389.731 3091.589 4051.149 3091.589 4051.149 3288.439 4389.731 3288.439" stroke-width="1" c_shapetype="line" stroke-linecap="round" fill="none" layerid="3" net="" id="gge415" /><polyline points="4364.531 3288.439 4364.534 3091.589" stroke-width="1" c_shapetype="line" stroke-linecap="round" fill="none" layerid="3" net="" id="gge416" /><polyline points="4092.094 3288.439 4092.094 3091.589" stroke-width="1" c_shapetype="line" stroke-linecap="round" fill="none" layerid="3" net="" id="gge417" /><polyline points="4064.141 3260.139 4064.141 3120.339 4054.301 3120.339 4054.301 3260.139 4064.141 3260.139" stroke-width="1" c_shapetype="line" stroke-linecap="round" fill="none" layerid="3" net="" id="gge418" /><g c_partid="part_via" c_etype="pinpart" c_shapetype="group" net="U2_D2" c_origin="4228.42,3225" layerid="11" id="gge320" locked="" solderExpansion=""><circle cx="4228.42" cy="3225" r="1.2008" stroke-width="0" /><circle cx="4228.42" cy="3225" r="0.689"  stroke-width="0" /></g><g c_partid="part_via" c_etype="pinpart" c_shapetype="group" net="U2_D1" c_origin="4234.69,3262.63" layerid="11" id="gge323" locked="" solderExpansion=""><circle cx="4234.69" cy="3262.63" r="1.2008" stroke-width="0" /><circle cx="4234.69" cy="3262.63" r="0.689"  stroke-width="0" /></g><g c_partid="part_via" c_etype="pinpart" c_shapetype="group" net="U2_D8" c_origin="4112.95,3243.27" layerid="11" id="gge331" locked="" solderExpansion=""><circle cx="4112.95" cy="3243.27" r="1.2008" stroke-width="0" /><circle cx="4112.95" cy="3243.27" r="0.689"  stroke-width="0" /></g><g c_partid="part_pad" c_etype="pinpart" c_origin="4062.94,3286.54" layerid="11" number="1" net="" plated ="Y" c_shapetype="group" id="gge377" locked="0" c_rotation="0" c_width="21.6535" c_height="21.6535" title="" c_shape="ELLIPSE" pasteExpansion="0" solderExpansion="0.4"><ellipse cx="4062.94" cy="3286.54" rx="10.82675" ry="10.82675" stroke-width="0" /><circle c_padhole="1" cx="4062.94" cy="3286.54" r="6.1024" stroke-width="0" /></g><g c_partid="part_pad" c_etype="pinpart" c_origin="4062.94,3093.47" layerid="11" number="1" net="" plated ="Y" c_shapetype="group" id="gge387" locked="0" c_rotation="0" c_width="21.6535" c_height="21.6535" title="" c_shape="ELLIPSE" pasteExpansion="0" solderExpansion="0.4"><ellipse cx="4062.94" cy="3093.47" rx="10.82675" ry="10.82675" stroke-width="0" /><circle c_padhole="1" cx="4062.94" cy="3093.47" r="6.1024" stroke-width="0" /></g><g c_partid="part_pad" c_etype="pinpart" c_origin="4390.89,3093.47" layerid="11" number="1" net="" plated ="Y" c_shapetype="group" id="gge400" locked="0" c_rotation="0" c_width="21.6535" c_height="21.6535" title="" c_shape="ELLIPSE" pasteExpansion="0" solderExpansion="0.4"><ellipse cx="4390.89" cy="3093.47" rx="10.82675" ry="10.82675" stroke-width="0" /><circle c_padhole="1" cx="4390.89" cy="3093.47" r="6.1024" stroke-width="0" /></g><g c_partid="part_pad" c_etype="pinpart" c_origin="4390.89,3286.54" layerid="11" number="1" net="" plated ="Y" c_shapetype="group" id="gge405" locked="0" c_rotation="0" c_width="21.6535" c_height="21.6535" title="" c_shape="ELLIPSE" pasteExpansion="0" solderExpansion="0.4"><ellipse cx="4390.89" cy="3286.54" rx="10.82675" ry="10.82675" stroke-width="0" /><circle c_padhole="1" cx="4390.89" cy="3286.54" r="6.1024" stroke-width="0" /></g><g c_partid="part_pad" c_etype="pinpart" c_origin="4059,3255" layerid="11" number="14" net="U2_D1" plated ="Y" c_shapetype="group" id="gge435" locked="0" c_rotation="180" c_width="6" c_height="6" title="U2_D1" c_shape="ELLIPSE" pasteExpansion="0" solderExpansion="0.4"><ellipse cx="4059" cy="3255" rx="3" ry="3" stroke-width="0" /><circle c_padhole="1" cx="4059" cy="3255" r="0.9843" stroke-width="0" /></g><g c_partid="part_pad" c_etype="pinpart" c_origin="4059,3245" layerid="11" number="13" net="U2_D6" plated ="Y" c_shapetype="group" id="gge441" locked="0" c_rotation="180" c_width="6" c_height="6" title="U2_D6" c_shape="ELLIPSE" pasteExpansion="0" solderExpansion="0.4"><ellipse cx="4059" cy="3245" rx="3" ry="3" stroke-width="0" /><circle c_padhole="1" cx="4059" cy="3245" r="0.9843" stroke-width="0" /></g><g c_partid="part_pad" c_etype="pinpart" c_origin="4059,3235" layerid="11" number="12" net="U2_D7" plated ="Y" c_shapetype="group" id="gge447" locked="0" c_rotation="180" c_width="6" c_height="6" title="U2_D7" c_shape="ELLIPSE" pasteExpansion="0" solderExpansion="0.4"><ellipse cx="4059" cy="3235" rx="3" ry="3" stroke-width="0" /><circle c_padhole="1" cx="4059" cy="3235" r="0.9843" stroke-width="0" /></g><g c_partid="part_pad" c_etype="pinpart" c_origin="4059,3225" layerid="11" number="11" net="U2_D2" plated ="Y" c_shapetype="group" id="gge452" locked="0" c_rotation="180" c_width="6" c_height="6" title="U2_D2" c_shape="ELLIPSE" pasteExpansion="0" solderExpansion="0.4"><ellipse cx="4059" cy="3225" rx="3" ry="3" stroke-width="0" /><circle c_padhole="1" cx="4059" cy="3225" r="0.9843" stroke-width="0" /></g><g c_partid="part_pad" c_etype="pinpart" c_origin="4059,3215" layerid="11" number="10" net="U2_D5" plated ="Y" c_shapetype="group" id="gge458" locked="0" c_rotation="180" c_width="6" c_height="6" title="U2_D5" c_shape="ELLIPSE" pasteExpansion="0" solderExpansion="0.4"><ellipse cx="4059" cy="3215" rx="3" ry="3" stroke-width="0" /><circle c_padhole="1" cx="4059" cy="3215" r="0.9843" stroke-width="0" /></g><g c_partid="part_pad" c_etype="pinpart" c_origin="4059,3205" layerid="11" number="9" net="U2_D6" plated ="Y" c_shapetype="group" id="gge464" locked="0" c_rotation="180" c_width="6" c_height="6" title="U2_D6" c_shape="ELLIPSE" pasteExpansion="0" solderExpansion="0.4"><ellipse cx="4059" cy="3205" rx="3" ry="3" stroke-width="0" /><circle c_padhole="1" cx="4059" cy="3205" r="0.9843" stroke-width="0" /></g><g c_partid="part_pad" c_etype="pinpart" c_origin="4059,3195" layerid="11" number="8" net="U2_3V3" plated ="Y" c_shapetype="group" id="gge470" locked="0" c_rotation="180" c_width="6" c_height="6" title="U2_3V3" c_shape="ELLIPSE" pasteExpansion="0" solderExpansion="0.4"><ellipse cx="4059" cy="3195" rx="3" ry="3" stroke-width="0" /><circle c_padhole="1" cx="4059" cy="3195" r="0.9843" stroke-width="0" /></g><g c_partid="part_pad" c_etype="pinpart" c_origin="4059,3185.01" layerid="11" number="7" net="U2_D5" plated ="Y" c_shapetype="group" id="gge475" locked="0" c_rotation="180" c_width="6" c_height="6" title="U2_D5" c_shape="ELLIPSE" pasteExpansion="0" solderExpansion="0.4"><ellipse cx="4059" cy="3185.01" rx="3" ry="3" stroke-width="0" /><circle c_padhole="1" cx="4059" cy="3185.01" r="0.9843" stroke-width="0" /></g><g c_partid="part_pad" c_etype="pinpart" c_origin="4059,3175.01" layerid="11" number="6" net="U2_D7" plated ="Y" c_shapetype="group" id="gge480" locked="0" c_rotation="180" c_width="6" c_height="6" title="U2_D7" c_shape="ELLIPSE" pasteExpansion="0" solderExpansion="0.4"><ellipse cx="4059" cy="3175.01" rx="3" ry="3" stroke-width="0" /><circle c_padhole="1" cx="4059" cy="3175.01" r="0.9843" stroke-width="0" /></g><g c_partid="part_pad" c_etype="pinpart" c_origin="4059,3165.01" layerid="11" number="5" net="U2_D4" plated ="Y" c_shapetype="group" id="gge485" locked="0" c_rotation="180" c_width="6" c_height="6" title="U2_D4" c_shape="ELLIPSE" pasteExpansion="0" solderExpansion="0.4"><ellipse cx="4059" cy="3165.01" rx="3" ry="3" stroke-width="0" /><circle c_padhole="1" cx="4059" cy="3165.01" r="0.9843" stroke-width="0" /></g><g c_partid="part_pad" c_etype="pinpart" c_origin="4059,3155.01" layerid="11" number="4" net="U2_3V3" plated ="Y" c_shapetype="group" id="gge491" locked="0" c_rotation="180" c_width="6" c_height="6" title="U2_3V3" c_shape="ELLIPSE" pasteExpansion="0" solderExpansion="0.4"><ellipse cx="4059" cy="3155.01" rx="3" ry="3" stroke-width="0" /><circle c_padhole="1" cx="4059" cy="3155.01" r="0.9843" stroke-width="0" /></g><g c_partid="part_pad" c_etype="pinpart" c_origin="4059,3145.01" layerid="11" number="3" net="U2_D8" plated ="Y" c_shapetype="group" id="gge497" locked="0" c_rotation="180" c_width="6" c_height="6" title="U2_D8" c_shape="ELLIPSE" pasteExpansion="0" solderExpansion="0.4"><ellipse cx="4059" cy="3145.01" rx="3" ry="3" stroke-width="0" /><circle c_padhole="1" cx="4059" cy="3145.01" r="0.9843" stroke-width="0" /></g><g c_partid="part_pad" c_etype="pinpart" c_origin="4059,3135.01" layerid="11" number="2" net="U2_GND" plated ="Y" c_shapetype="group" id="gge503" locked="0" c_rotation="180" c_width="6" c_height="6" title="U2_GND" c_shape="ELLIPSE" pasteExpansion="0" solderExpansion="0.4"><ellipse cx="4059" cy="3135.01" rx="3" ry="3" stroke-width="0" /><circle c_padhole="1" cx="4059" cy="3135.01" r="0.9843" stroke-width="0" /></g><g c_partid="part_pad" c_etype="pinpart" c_origin="4059.01,3125.01" layerid="11" number="1" net="U2_3V3" plated ="Y" c_shapetype="group" id="gge509" locked="0" c_rotation="180" c_width="6" c_height="6" title="U2_3V3" c_shape="RECT" pasteExpansion="0" solderExpansion="0.4"><polygon points="4062.011 3128.014 4056.011 3128.014 4056.011 3122.014 4062.011 3122.014" stroke-width="0" /><circle c_padhole="1" cx="4059.01" cy="3125.01" r="0.9843" stroke-width="0" /></g><g c_partid="part_pad" c_etype="pinpart" c_origin="4377.91,3205" layerid="11" number="18" net="U1_18" plated ="Y" c_shapetype="group" id="gge515" locked="0" c_rotation="180" c_width="6" c_height="6" title="U1_18" c_shape="ELLIPSE" pasteExpansion="0" solderExpansion="0.4"><ellipse cx="4377.91" cy="3205" rx="3" ry="3" stroke-width="0" /><circle c_padhole="1" cx="4377.91" cy="3205" r="0.9843" stroke-width="0" /></g><g c_partid="part_pad" c_etype="pinpart" c_origin="4377.91,3195" layerid="11" number="17" net="U1_17" plated ="Y" c_shapetype="group" id="gge521" locked="0" c_rotation="180" c_width="6" c_height="6" title="U1_17" c_shape="ELLIPSE" pasteExpansion="0" solderExpansion="0.4"><ellipse cx="4377.91" cy="3195" rx="3" ry="3" stroke-width="0" /><circle c_padhole="1" cx="4377.91" cy="3195" r="0.9843" stroke-width="0" /></g><g c_partid="part_pad" c_etype="pinpart" c_origin="4377.91,3185.01" layerid="11" number="16" net="U1_16" plated ="Y" c_shapetype="group" id="gge526" locked="0" c_rotation="180" c_width="6" c_height="6" title="U1_16" c_shape="ELLIPSE" pasteExpansion="0" solderExpansion="0.4"><ellipse cx="4377.91" cy="3185.01" rx="3" ry="3" stroke-width="0" /><circle c_padhole="1" cx="4377.91" cy="3185.01" r="0.9843" stroke-width="0" /></g><g c_partid="part_pad" c_etype="pinpart" c_origin="4377.92,3175.01" layerid="11" number="15" net="U1_15" plated ="Y" c_shapetype="group" id="gge531" locked="0" c_rotation="180" c_width="6" c_height="6" title="U1_15" c_shape="RECT" pasteExpansion="0" solderExpansion="0.4"><polygon points="4380.92 3178.014 4374.92 3178.014 4374.92 3172.014 4380.92 3172.014" stroke-width="0" /><circle c_padhole="1" cx="4377.92" cy="3175.01" r="0.9843" stroke-width="0" /></g><polyline points="4040 3080 4404 3080 4404 3300 4040 3300 4040 3080" stroke-width="1" c_shapetype="line" stroke-linecap="round" fill="none" layerid="10" net="S$537" id="gge536" /></g></svg>